<!DOCTYPE svg PUBLIC "-//W3C//DTD SVG 20010904//EN" "http://www.w3.org/TR/2001/REC-SVG-20010904/DTD/svg10.dtd">
<svg version="1.0" xmlns="http://www.w3.org/2000/svg" width="569px" height="305px" viewBox="0 0 5690 3050" preserveAspectRatio="xMidYMid meet">
<g id="layer1" fill="#3a6482" stroke="none">
 <path d="M2553 2443 c-27 -5 -58 -46 -78 -102 l-14 -41 52 -30 c29 -16 55 -30 60 -30 4 0 19 26 33 58 14 31 37 69 51 84 l25 26 -40 21 c-41 21 -48 22 -89 14z"/>
 <path d="M3736 2301 c-4 -5 9 -38 27 -73 l34 -63 69 -6 c38 -3 72 -4 76 -2 3 2 -2 24 -12 50 -24 65 -76 103 -141 103 -26 0 -50 -4 -53 -9z"/>
 <path d="M1273 2152 c-15 -12 -22 -30 -25 -61 -2 -39 1 -47 30 -71 l32 -27 -39 -15 c-40 -16 -81 -71 -61 -83 5 -3 36 1 69 10 32 8 70 15 83 15 14 0 33 9 43 20 17 19 18 27 7 92 -7 39 -15 75 -18 79 -3 5 -27 20 -53 33 -44 23 -48 23 -68 8z"/>
 <path d="M2892 2054 c-18 -21 -32 -49 -32 -61 0 -13 -9 -31 -20 -40 -23 -20 -25 -33 -7 -56 11 -15 15 -15 47 1 60 29 61 30 48 58 -10 20 -8 30 5 54 20 34 21 41 4 64 -13 17 -16 16 -45 -20z"/>
 <path d="M3277 2053 c-14 -26 -14 -31 3 -53 20 -26 33 -68 34 -109 2 -41 25 -35 45 11 10 24 31 58 46 76 l27 32 -36 15 c-19 8 -41 15 -48 15 -6 0 -22 9 -34 21 l-22 21 -15 -29z"/>
 <path d="M1549 2038 c-14 -25 -1 -103 20 -121 21 -19 81 -38 93 -31 5 3 6 13 2 23 -4 9 -14 43 -24 76 -15 54 -20 60 -49 66 -25 5 -34 3 -42 -13z"/>
 <path d="M3918 1970 c-49 -15 -98 -51 -100 -73 -1 -12 -2 -29 -3 -37 0 -8 -4 -21 -9 -28 -17 -27 11 -34 40 -9 16 13 49 35 74 49 41 24 45 29 44 64 -1 42 -6 46 -46 34z"/>
 <path d="M2366 1913 c-3 -3 -6 -19 -6 -35 0 -22 -4 -28 -17 -26 -11 2 -17 -2 -15 -11 4 -17 -27 -122 -40 -138 -13 -16 0 -21 62 -27 25 -2 58 -9 73 -15 16 -6 34 -11 42 -11 7 0 15 -6 18 -12 5 -14 66 -18 68 -5 4 31 -16 140 -32 175 -19 43 -39 48 -39 12 0 -13 -5 -18 -15 -14 -8 4 -21 1 -29 -5 -11 -9 -17 0 -30 49 -17 59 -27 76 -40 63z"/>
 <path d="M2306 1901 c-4 -5 -2 -12 3 -15 5 -4 12 -2 15 3 4 5 2 12 -3 15 -5 4 -12 2 -15 -3z"/>
 <path d="M3600 1823 c-34 -13 -40 -24 -25 -46 8 -12 15 -29 15 -39 0 -26 17 -31 46 -12 21 14 25 23 20 47 -6 30 -23 58 -35 56 -3 0 -13 -3 -21 -6z"/>
 <path d="M2735 1770 c-4 -6 -3 -16 3 -22 6 -6 12 -6 17 2 4 6 3 16 -3 22 -6 6 -12 6 -17 -2z"/>
 <path d="M3167 1763 c-2 -5 10 -23 28 -40 l32 -33 19 21 c19 21 18 21 -5 40 -23 19 -66 26 -74 12z"/>
 <path d="M2775 1700 c-19 -37 -12 -53 52 -121 28 -30 57 -50 76 -54 18 -4 52 -20 77 -35 70 -43 87 -46 117 -16 21 21 23 29 13 41 -6 8 -22 17 -33 21 -12 3 -32 18 -44 33 -21 25 -22 25 -29 6 -16 -43 -27 -48 -40 -16 -8 19 -20 31 -32 31 -25 0 -77 50 -102 100 -11 22 -25 40 -30 40 -5 0 -16 -14 -25 -30z"/>
 <path d="M1854 1711 c-9 -9 30 -41 50 -41 16 0 18 -2 7 -9 -17 -11 -19 -57 -4 -86 6 -11 8 -34 6 -51 -7 -43 11 -50 37 -15 17 25 19 33 8 50 -16 26 -3 39 24 22 17 -11 23 -10 43 9 19 18 22 27 15 50 -8 26 -6 29 18 32 16 2 27 9 27 18 0 11 -12 15 -45 16 -25 1 -49 3 -55 4 -20 4 -127 5 -131 1z"/>
 <path d="M3864 1672 c-62 -49 -68 -57 -83 -112 -9 -33 -9 -53 -2 -73 11 -28 31 -29 31 -1 0 8 4 13 9 10 18 -11 34 24 28 61 -5 27 -1 43 14 65 19 26 22 27 34 12 18 -25 34 -8 31 32 -2 19 -6 37 -8 40 -3 2 -27 -13 -54 -34z"/>
 <path d="M4166 1601 c-4 -5 -2 -12 3 -15 5 -4 12 -2 15 3 4 5 2 12 -3 15 -5 4 -12 2 -15 -3z"/>
 <path d="M1178 1514 c-15 -14 77 -209 97 -206 17 2 17 53 1 97 -16 41 -87 121 -98 109z"/>
 <path d="M3856 1441 c-4 -5 -2 -12 3 -15 5 -4 12 -2 15 3 4 5 2 12 -3 15 -5 4 -12 2 -15 -3z"/>
 <path d="M2276 1405 c-23 -36 -13 -45 50 -45 49 0 55 2 64 26 14 36 6 44 -49 44 -41 0 -51 -4 -65 -25z"/>
 <path d="M2445 1391 c-3 -6 4 -15 15 -21 13 -7 20 -21 20 -39 0 -37 24 -59 38 -35 7 13 13 14 30 5 37 -20 34 7 -5 47 -38 39 -87 60 -98 43z"/>
 <path d="M3535 1383 c-16 -3 -38 -12 -48 -20 -16 -15 -16 -17 -1 -35 10 -10 23 -18 31 -18 8 0 25 -12 39 -27 l25 -27 39 39 40 39 -27 28 c-26 27 -37 30 -98 21z"/>
 <path d="M2116 1351 c-4 -5 -2 -12 3 -15 5 -4 12 -2 15 3 4 5 2 12 -3 15 -5 4 -12 2 -15 -3z"/>
 <path d="M1992 1298 c-15 -15 -16 -45 -2 -53 13 -8 34 45 22 57 -4 4 -13 3 -20 -4z"/>
 <path d="M2856 1261 c-3 -5 1 -15 10 -22 19 -16 84 -143 84 -165 0 -8 14 -29 30 -46 17 -16 30 -32 30 -36 0 -3 21 -28 46 -53 45 -46 48 -47 70 -32 17 10 24 25 25 47 0 17 4 40 8 51 5 13 3 31 -6 49 -8 15 -21 53 -29 84 -18 69 -31 85 -60 78 -13 -4 -25 -2 -28 3 -5 8 -55 21 -101 27 -5 0 -23 6 -38 12 -34 14 -34 14 -41 3z"/>
 <path d="M4526 1241 c-4 -5 -2 -12 3 -15 5 -4 12 -2 15 3 4 5 2 12 -3 15 -5 4 -12 2 -15 -3z"/>
 <path d="M1958 1203 c-9 -2 -24 -16 -34 -30 -14 -23 -15 -28 -2 -37 8 -6 18 -20 21 -30 7 -17 9 -18 23 -5 16 17 29 95 17 101 -4 3 -16 3 -25 1z"/>
 <path d="M1933 1062 c-34 -5 -46 -27 -38 -72 4 -22 10 -42 15 -45 5 -3 22 7 39 21 49 41 39 105 -16 96z"/>
 <path d="M1495 835 c-33 -6 -60 -15 -59 -20 4 -88 58 -139 129 -123 22 5 43 12 47 16 6 7 -37 121 -50 133 -4 3 -34 0 -67 -6z"/>
 </g>
<g id="layer2" fill="#547790" stroke="none">
 <path d="M2625 2491 c-60 -26 -88 -32 -123 -22 -36 11 -53 -5 -87 -78 -11 -26 -23 -40 -31 -37 -8 3 -16 1 -19 -5 -4 -5 15 -18 42 -30 26 -11 61 -31 78 -43 16 -13 44 -30 61 -39 38 -19 44 -14 63 51 14 48 69 115 114 138 26 14 27 17 14 32 -9 9 -29 25 -44 34 -27 16 -31 16 -68 -1z m0 -73 c30 -14 31 -20 6 -42 -11 -10 -29 -40 -40 -67 l-22 -49 -39 20 c-23 12 -40 28 -40 37 0 33 41 102 63 106 39 8 46 7 72 -5z"/>
 <path d="M2766 2461 c-4 -5 -2 -12 3 -15 5 -4 12 -2 15 3 4 5 2 12 -3 15 -5 4 -12 2 -15 -3z"/>
 <path d="M2331 2436 c-10 -12 -9 -17 8 -25 26 -14 40 5 19 25 -13 13 -16 13 -27 0z"/>
 <path d="M3729 2386 c-2 -3 -24 -6 -49 -9 -25 -2 -44 -7 -43 -11 1 -4 27 -30 58 -57 49 -46 60 -51 56 -26 0 4 18 7 40 7 56 0 103 -30 116 -75 l11 -36 -61 3 c-34 2 -61 6 -59 11 5 13 -29 68 -38 62 -6 -4 -3 -19 7 -38 9 -18 18 -38 19 -45 1 -8 5 -16 7 -19 9 -8 118 -10 123 -2 3 5 13 4 22 -1 9 -5 38 -18 64 -29 50 -21 69 -15 39 11 -11 9 -22 34 -26 56 -8 47 -11 50 -89 91 -32 17 -81 49 -108 71 -45 36 -76 48 -89 36z"/>
 <path d="M1886 2331 c-4 -5 -2 -12 3 -15 5 -4 12 -2 15 3 4 5 2 12 -3 15 -5 4 -12 2 -15 -3z"/>
 <path d="M1836 2301 c-4 -5 -2 -12 3 -15 5 -4 12 -2 15 3 4 5 2 12 -3 15 -5 4 -12 2 -15 -3z"/>
 <path d="M1284 2218 c-22 -43 -18 -41 -67 -47 -39 -6 -42 -8 -45 -41 -2 -19 -8 -40 -13 -46 -11 -13 -2 -24 21 -24 8 0 32 -9 53 -19 33 -17 58 -15 40 3 -10 10 -3 78 9 93 8 10 21 7 58 -12 26 -13 47 -30 47 -37 -1 -7 3 -39 7 -71 6 -39 5 -61 -3 -70 -12 -15 -5 -27 16 -27 24 0 36 50 22 100 -7 25 -17 54 -23 65 -5 11 -11 47 -12 80 -2 48 -5 59 -18 57 -8 -1 -29 4 -45 13 -30 15 -31 15 -47 -17z"/>
 <path d="M1596 2221 c-4 -5 -2 -12 3 -15 5 -4 12 -2 15 3 4 5 2 12 -3 15 -5 4 -12 2 -15 -3z"/>
 <path d="M1579 2176 c-1 -3 -2 -9 -3 -13 -1 -5 -4 -13 -8 -18 -11 -18 -38 -132 -38 -161 0 -37 21 -79 40 -80 8 -1 18 -3 23 -4 4 -1 12 -4 17 -5 6 -1 12 -4 15 -5 3 -1 8 -3 13 -4 4 0 27 -13 52 -28 91 -53 209 -204 195 -249 -7 -23 11 -105 29 -128 8 -11 13 -9 28 9 18 22 16 46 -3 35 -5 -4 -9 -2 -9 4 0 15 18 23 25 10 5 -7 15 -3 31 12 18 17 21 26 13 41 -12 23 -76 22 -71 0 1 -8 -2 -11 -7 -8 -11 7 -3 43 17 74 8 12 10 22 6 22 -5 0 -1 5 9 11 13 8 22 7 32 -1 8 -6 20 -8 26 -4 7 4 9 3 6 -3 -4 -6 -2 -24 3 -41 5 -20 5 -34 -1 -38 -5 -3 -7 -10 -3 -15 4 -6 12 -5 22 4 10 8 34 22 55 30 20 9 37 22 37 30 0 8 7 28 15 43 29 56 11 93 -23 49 -11 -14 -23 -22 -26 -17 -3 5 -25 7 -48 5 -35 -4 -50 0 -81 21 l-38 26 -29 -20 -28 -20 -28 82 c-36 109 -58 131 -128 126 l-53 -3 -18 56 c-11 37 -15 69 -11 92 6 35 -6 58 -19 37 -5 -8 -11 -7 -21 1 -10 8 -11 15 -4 24 8 9 8 15 0 20 -5 3 -11 4 -11 1z m46 -210 c17 -54 18 -63 5 -61 -8 2 -16 4 -17 5 -2 2 -7 3 -12 4 -19 2 -29 22 -36 69 -7 45 -6 47 16 47 21 0 27 -9 44 -64z m175 -156 c6 -11 9 -20 7 -20 -2 0 -12 9 -22 20 -10 11 -13 20 -7 20 6 0 16 -9 22 -20z"/>
 <path d="M2939 2108 c-40 -31 -51 -57 -22 -50 17 4 16 -19 -2 -44 -20 -29 -7 -93 16 -79 5 4 5 13 0 24 -13 24 19 76 64 102 28 17 33 24 25 38 -22 42 -36 43 -81 9z"/>
 <path d="M3219 2133 c-1 -4 0 -17 1 -27 1 -13 -3 -17 -14 -13 -31 12 -25 -12 8 -32 19 -12 41 -33 50 -46 9 -14 21 -23 27 -19 7 4 7 10 0 18 -6 7 -6 17 -1 26 7 12 12 11 28 -4 11 -9 23 -13 26 -8 3 5 -14 28 -38 50 -47 43 -85 67 -87 55z"/>
 <path d="M3806 2121 c-4 -5 -2 -12 3 -15 5 -4 12 -2 15 3 4 5 2 12 -3 15 -5 4 -12 2 -15 -3z"/>
 <path d="M1875 2030 c-8 -16 -18 -50 -21 -74 -7 -48 -7 -48 81 -123 60 -51 98 -44 62 12 -37 55 -61 99 -67 120 -4 12 -13 19 -23 17 -19 -3 -22 19 -7 48 6 12 7 21 0 25 -5 3 -16 -8 -25 -25z"/>
 <path d="M3814 2046 c-4 -10 -2 -22 4 -28 8 -8 13 -7 18 6 4 10 2 22 -4 28 -8 8 -13 7 -18 -6z"/>
 <path d="M2876 2041 c-4 -5 -2 -12 3 -15 5 -4 12 -2 15 3 4 5 2 12 -3 15 -5 4 -12 2 -15 -3z"/>
 <path d="M3365 2030 c-6 -10 -5 -11 14 -14 23 -3 20 -17 -8 -57 -17 -23 -31 -48 -31 -54 0 -7 -7 -18 -15 -25 -30 -25 1 -32 39 -9 29 17 34 24 25 35 -12 15 -8 24 40 76 25 28 21 35 -21 42 -7 1 -18 5 -25 9 -6 4 -14 3 -18 -3z"/>
 <path d="M1287 2024 c-4 -4 -2 -12 3 -19 7 -8 -6 -17 -48 -30 -31 -10 -68 -19 -81 -19 -20 -1 -27 -8 -34 -36 -5 -19 -15 -42 -24 -52 -8 -9 -10 -18 -6 -21 8 -5 102 24 163 50 8 3 18 7 23 7 4 1 7 4 7 9 0 6 -5 9 -12 6 -2 0 -13 -2 -25 -3 -49 -6 -10 40 42 50 20 3 37 10 40 14 6 10 -40 52 -48 44z"/>
 <path d="M2855 1990 c-3 -5 -4 -14 -1 -19 3 -5 -8 -14 -24 -21 -16 -7 -46 -30 -65 -52 -34 -37 -36 -42 -34 -106 1 -37 9 -80 18 -97 8 -16 15 -33 16 -37 0 -16 19 -2 20 14 2 22 16 37 21 23 2 -5 13 -25 24 -43 30 -48 43 -29 15 21 -49 87 -48 171 1 204 25 16 25 17 8 30 -18 14 -18 15 0 29 22 15 31 50 17 59 -5 3 -12 1 -16 -5z"/>
 <path d="M2237 1984 c-3 -4 9 -26 28 -49 19 -23 35 -46 35 -50 0 -5 6 -16 14 -24 9 -12 11 -25 4 -48 -7 -27 -13 -31 -35 -30 -25 2 -29 -3 -44 -48 -19 -59 -16 -69 20 -60 39 10 57 31 72 83 12 46 37 91 50 92 4 0 10 -12 14 -27 10 -41 25 -56 41 -42 8 6 20 9 29 6 8 -4 17 -1 21 4 8 14 34 -37 34 -67 0 -23 15 -41 23 -27 3 5 6 44 8 88 3 71 1 80 -14 77 -13 -2 -17 5 -17 31 0 38 -21 63 -45 53 -8 -3 -15 -15 -15 -26 0 -12 -7 -35 -16 -52 -16 -31 -17 -31 -31 -12 -8 10 -19 18 -25 16 -8 -2 -7 2 0 11 20 23 -17 61 -63 64 -22 1 -47 11 -60 23 -12 11 -24 17 -28 14z"/>
 <path d="M3296 1981 c-4 -5 -2 -12 4 -16 6 -4 8 -10 5 -15 -3 -5 -1 -11 4 -14 5 -4 12 -2 15 3 4 5 2 12 -4 16 -6 4 -8 10 -5 15 3 5 1 11 -4 14 -5 4 -12 2 -15 -3z"/>
 <path d="M3956 1982 c-3 -5 -16 -7 -29 -5 -25 5 -107 -31 -107 -47 0 -19 20 -20 52 0 46 28 68 26 68 -5 0 -18 -9 -29 -32 -41 -18 -9 -44 -26 -57 -38 -13 -11 -21 -16 -17 -9 9 16 -11 26 -21 11 -4 -7 -8 -17 -8 -23 -1 -10 -7 -24 -36 -90 -23 -54 -26 -70 -12 -68 19 4 26 -55 13 -103 -7 -24 -10 -55 -6 -68 14 -55 119 -145 132 -113 6 16 -51 129 -71 140 -9 4 -18 1 -24 -10 -14 -24 -14 -3 1 52 7 24 18 47 26 50 12 5 13 3 2 -10 -10 -13 -11 -21 0 -43 l12 -27 17 25 c9 13 25 34 36 45 11 11 19 22 18 25 -1 3 6 6 15 7 33 3 72 23 72 36 0 8 9 26 21 41 18 23 19 27 4 32 -9 4 -40 -2 -69 -13 l-53 -20 -17 46 c-22 62 -21 66 20 93 97 61 142 71 226 48 49 -14 55 -26 21 -42 -30 -14 -39 -53 -13 -53 8 0 21 -4 28 -8 17 -12 32 1 32 27 0 12 5 27 11 33 8 8 8 13 0 17 -6 4 -11 18 -11 30 0 38 -23 49 -95 44 -59 -4 -64 -2 -67 17 -2 15 -12 21 -40 23 -20 2 -39 -1 -42 -6z m-108 -237 c17 -37 15 -49 -11 -73 l-24 -22 -11 36 c-9 30 -8 41 5 60 20 30 27 30 41 -1z m56 -81 c3 -8 2 -12 -4 -9 -6 3 -10 10 -10 16 0 14 7 11 14 -7z"/>
 <path d="M4830 1947 c-19 -7 -35 -16 -34 -22 0 -11 81 -61 159 -99 28 -13 63 -41 79 -61 38 -50 57 -33 28 24 -21 40 -21 41 -2 41 37 0 34 23 -8 61 -76 67 -141 83 -222 56z"/>
 <path d="M1315 1931 c-7 -12 12 -24 25 -16 11 7 4 25 -10 25 -5 0 -11 -4 -15 -9z"/>
 <path d="M1046 1921 c-3 -4 4 -17 15 -26 18 -17 21 -17 36 -2 15 15 14 17 -11 27 -33 12 -33 12 -40 1z"/>
 <path d="M2886 1921 c-4 -5 -2 -12 3 -15 5 -4 12 -2 15 3 4 5 2 12 -3 15 -5 4 -12 2 -15 -3z"/>
 <path d="M3815 1900 c-4 -6 -3 -16 3 -22 6 -6 12 -6 17 2 4 6 3 16 -3 22 -6 6 -12 6 -17 -2z"/>
 <path d="M3588 1834 c-17 -9 -29 -10 -33 -4 -4 6 -10 8 -15 5 -5 -3 5 -26 22 -50 32 -45 62 -53 33 -9 -8 13 -11 24 -6 24 5 0 16 3 24 6 9 3 17 -3 20 -18 5 -17 9 -20 18 -11 8 8 8 17 0 30 -19 36 -34 42 -63 27z"/>
 <path d="M4424 1788 c-4 -7 -14 -23 -21 -35 -13 -19 -12 -23 6 -33 18 -9 23 -7 31 15 5 14 13 25 17 24 22 -4 24 3 8 21 -21 23 -31 25 -41 8z"/>
 <path d="M5157 1783 c-10 -10 -8 -136 3 -153 5 -8 5 -19 0 -25 -4 -5 -9 -37 -11 -70 -3 -48 -1 -60 11 -60 10 0 18 17 25 48 6 27 13 45 17 42 4 -4 11 -4 17 -1 6 4 3 18 -9 39 -15 23 -20 50 -20 98 0 63 -15 100 -33 82z"/>
 <path d="M3215 1761 c-3 -6 2 -14 11 -19 9 -5 14 -14 10 -21 -5 -7 -15 -2 -30 16 -34 39 -39 14 -6 -27 l28 -35 26 24 c20 19 23 27 14 38 -18 22 -46 34 -53 24z"/>
 <path d="M4486 1751 c-4 -5 -2 -12 3 -15 5 -4 12 -2 15 3 4 5 2 12 -3 15 -5 4 -12 2 -15 -3z"/>
 <path d="M3613 1733 c-15 -10 -23 -26 -23 -44 0 -40 19 -46 31 -10 6 17 16 29 22 28 15 -2 16 35 2 39 -5 2 -20 -4 -32 -13z"/>
 <path d="M4044 1727 c-3 -9 -4 -28 -2 -44 2 -20 8 -28 23 -28 17 0 20 7 20 40 0 30 -4 41 -18 43 -9 2 -20 -3 -23 -11z"/>
 <path d="M4502 1706 c-16 -28 -18 -37 -8 -45 7 -6 17 -7 21 -3 5 4 5 2 2 -4 -4 -7 2 -23 12 -35 22 -27 27 -21 33 44 3 28 -1 42 -18 58 l-21 20 -21 -35z"/>
 <path d="M4446 1711 c-4 -5 -2 -12 3 -15 5 -4 12 -2 15 3 4 5 2 12 -3 15 -5 4 -12 2 -15 -3z"/>
 <path d="M2385 1702 c-4 -4 -15 -7 -26 -7 -33 0 -22 -20 18 -30 81 -21 103 -37 103 -73 0 -68 64 -139 131 -144 51 -4 45 24 -9 41 -30 9 -50 23 -63 45 -24 40 -25 78 -2 74 13 -2 18 5 20 29 3 34 -13 54 -23 29 -7 -18 -39 -22 -49 -6 -3 6 -14 10 -24 10 -10 0 -30 9 -43 20 -14 10 -29 16 -33 12z"/>
 <path d="M4159 1693 c-2 -14 3 -86 6 -105 6 -27 15 -39 26 -33 13 9 11 119 -3 133 -14 14 -28 16 -29 5z"/>
 <path d="M3225 1650 c-4 -6 -3 -16 3 -22 6 -6 12 -6 17 2 4 6 3 16 -3 22 -6 6 -12 6 -17 -2z"/>
 <path d="M2786 1631 c-4 -5 -2 -12 3 -15 5 -4 12 -2 15 3 4 5 2 12 -3 15 -5 4 -12 2 -15 -3z"/>
 <path d="M5287 1634 c-11 -11 -8 -142 3 -149 15 -9 25 24 24 83 0 50 -13 80 -27 66z"/>
 <path d="M3687 1617 c-9 -7 -35 -61 -57 -121 l-40 -110 25 -26 25 -26 -28 -27 c-26 -25 -30 -26 -42 -12 -24 28 -92 56 -107 44 -7 -6 -10 -16 -7 -21 3 -5 8 -7 11 -5 2 3 22 -5 44 -17 30 -15 44 -31 54 -58 25 -73 60 -108 60 -60 0 9 7 18 15 18 8 1 18 2 22 3 4 0 2 14 -3 31 -8 21 -7 40 1 65 10 30 9 38 -9 64 l-21 29 44 116 c43 113 46 138 13 113z"/>
 <path d="M4795 1620 c-13 -22 82 -61 183 -75 50 -7 53 -9 48 -30 -3 -13 -2 -26 3 -29 16 -10 43 31 39 60 -3 28 -6 29 -83 40 -44 6 -97 19 -119 28 -44 18 -62 20 -71 6z"/>
 <path d="M2876 1612 c-7 -12 11 -27 48 -42 23 -8 27 -15 23 -36 -4 -21 3 -31 35 -54 50 -37 97 -48 113 -27 9 13 14 13 35 1 32 -17 84 -18 99 -1 15 19 4 27 -40 27 -28 0 -45 7 -62 26 -16 17 -27 22 -31 15 -4 -6 -5 -11 -2 -11 3 0 -3 -9 -14 -20 -19 -19 -23 -19 -55 -6 -37 16 -44 36 -20 56 13 10 19 10 35 -5 10 -9 24 -14 30 -10 7 4 -2 19 -25 41 -32 30 -43 34 -89 34 -28 0 -57 5 -63 11 -7 7 -13 7 -17 1z"/>
 <path d="M2806 1602 c-3 -5 8 -21 23 -36 16 -15 31 -23 35 -18 3 5 -8 21 -23 36 -16 15 -31 23 -35 18z"/>
 <path d="M4630 1596 c-9 -9 5 -331 15 -331 17 0 26 77 23 204 -3 104 -6 126 -18 129 -9 1 -18 1 -20 -2z"/>
 <path d="M3206 1571 c-4 -5 -2 -12 3 -15 5 -4 12 -2 15 3 4 5 2 12 -3 15 -5 4 -12 2 -15 -3z"/>
 <path d="M1094 1547 c-10 -27 4 -59 34 -77 59 -36 96 -126 74 -182 -9 -24 -8 -30 4 -35 9 -3 20 -17 25 -30 5 -13 14 -21 19 -18 29 18 59 133 32 128 -11 -3 -50 64 -73 125 -10 25 -10 26 9 8 12 -10 23 -13 26 -8 7 12 -66 79 -100 92 -34 13 -44 12 -50 -3z"/>
 <path d="M2886 1541 c-4 -5 -2 -12 3 -15 5 -4 12 -2 15 3 4 5 2 12 -3 15 -5 4 -12 2 -15 -3z"/>
 <path d="M1794 1516 c-7 -18 22 -113 38 -122 24 -15 29 15 10 72 -19 59 -37 78 -48 50z"/>
 <path d="M666 1501 c-4 -5 -2 -12 3 -15 5 -4 12 -2 15 3 4 5 2 12 -3 15 -5 4 -12 2 -15 -3z"/>
 <path d="M4229 1469 c-20 -41 -22 -42 -30 -21 -10 27 -15 28 -29 3 -13 -25 -22 -139 -11 -145 10 -6 99 129 108 162 11 46 -14 47 -38 1z"/>
 <path d="M4780 1495 c-14 -17 -5 -36 15 -30 49 15 48 15 35 30 -16 19 -34 19 -50 0z"/>
 <path d="M996 1481 c-4 -5 -2 -12 3 -15 5 -4 12 -2 15 3 4 5 2 12 -3 15 -5 4 -12 2 -15 -3z"/>
 <path d="M3975 1450 c-4 -6 -3 -16 3 -22 6 -6 12 -6 17 2 4 6 3 16 -3 22 -6 6 -12 6 -17 -2z"/>
 <path d="M676 1441 c-4 -5 -2 -12 3 -15 5 -4 12 -2 15 3 4 5 2 12 -3 15 -5 4 -12 2 -15 -3z"/>
 <path d="M1247 1444 c-3 -4 -1 -16 5 -28 7 -11 12 -24 13 -28 0 -5 3 -8 8 -8 6 0 9 5 6 13 0 1 -2 10 -4 21 -4 23 -19 39 -28 30z"/>
 <path d="M2252 1396 c-15 -25 -18 -38 -10 -42 12 -8 60 45 55 60 -7 22 -26 15 -45 -18z"/>
 <path d="M2378 1411 c-18 -22 -17 -56 2 -56 50 -1 135 -76 160 -141 8 -19 14 -24 23 -16 15 13 30 5 46 -27 9 -16 16 -20 23 -13 28 28 -44 178 -78 165 -13 -5 -16 -2 -11 9 16 44 -135 116 -165 79z m129 -38 c-4 -3 1 -15 10 -25 14 -15 14 -19 3 -16 -24 5 -35 48 -13 48 4 0 3 -3 0 -7z"/>
 <path d="M2127 1388 c-20 -31 -30 -66 -22 -77 3 -6 20 -1 40 10 22 13 32 25 27 32 -4 7 -7 21 -7 31 0 28 -22 31 -38 4z"/>
 <path d="M3510 1390 c-22 -16 -23 -20 -8 -25 43 -17 88 13 51 34 -14 7 -25 5 -43 -9z"/>
 <path d="M2566 1392 c-3 -5 4 -18 15 -28 27 -25 144 -28 144 -4 0 11 -16 17 -60 21 -33 3 -67 9 -76 13 -10 4 -20 3 -23 -2z"/>
 <path d="M2037 1338 c-20 -16 -37 -37 -37 -45 0 -8 -4 -11 -10 -8 -5 3 -23 -21 -40 -54 -16 -33 -26 -63 -21 -66 5 -3 12 -1 16 5 9 15 22 12 22 -4 0 -8 -6 -12 -12 -10 -24 10 -54 -30 -57 -76 -3 -49 -8 -46 62 -35 18 2 23 54 7 73 -7 9 -5 18 5 30 9 9 25 36 37 59 12 23 35 56 51 73 28 29 40 73 22 83 -4 3 -24 -8 -45 -25z"/>
 <path d="M2776 1311 c-7 -11 11 -31 57 -65 20 -15 46 -44 58 -64 11 -20 31 -55 43 -77 19 -32 23 -53 21 -103 -3 -68 6 -84 28 -51 8 11 18 16 21 11 7 -12 1 -96 -8 -111 -4 -6 -4 -16 -1 -21 9 -15 27 -1 21 16 -10 26 11 23 39 -6 35 -37 40 -37 57 -2 14 27 39 33 92 21 16 -3 20 3 23 31 3 19 9 40 14 46 6 7 1 18 -12 30 -37 33 -79 96 -79 119 0 14 8 25 20 28 20 5 20 6 1 54 -13 34 -25 49 -40 51 -46 7 -51 -2 -34 -60 8 -29 23 -71 33 -93 11 -25 14 -47 9 -60 -4 -11 -8 -32 -8 -46 -1 -43 -31 -46 -64 -7 -15 18 -45 52 -65 76 -20 23 -36 47 -34 52 1 6 -15 43 -35 83 -21 39 -38 78 -38 84 0 7 -5 14 -10 15 -6 1 -31 14 -57 29 -26 16 -50 24 -52 20z"/>
 <path d="M4050 1261 c-15 -30 -9 -86 10 -86 11 0 16 13 18 44 4 52 -11 73 -28 42z"/>
 <path d="M4531 1266 c-7 -8 -10 -20 -7 -25 4 -5 2 -12 -2 -15 -5 -3 -6 -22 -3 -42 7 -42 33 -64 57 -49 23 15 22 30 -2 33 -17 2 -23 12 -26 38 -2 19 1 39 6 44 7 7 7 13 0 20 -8 8 -15 6 -23 -4z"/>
 <path d="M2906 1252 c-3 -6 0 -14 7 -19 16 -11 47 -10 46 2 -1 6 -6 9 -11 7 -6 -1 -16 2 -23 8 -8 7 -16 7 -19 2z"/>
 <path d="M1176 1241 c-4 -5 -2 -12 3 -15 5 -4 12 -2 15 3 4 5 2 12 -3 15 -5 4 -12 2 -15 -3z"/>
 <path d="M3026 1221 c-8 -12 21 -34 34 -26 8 5 8 11 -1 21 -13 16 -25 18 -33 5z"/>
 <path d="M2554 1146 c-4 -10 -2 -22 4 -28 8 -8 13 -7 18 6 4 10 2 22 -4 28 -8 8 -13 7 -18 -6z"/>
 <path d="M1006 1141 c-4 -5 -2 -12 3 -15 5 -4 12 -2 15 3 4 5 2 12 -3 15 -5 4 -12 2 -15 -3z"/>
 <path d="M1055 1121 c-7 -12 12 -24 25 -16 11 7 4 25 -10 25 -5 0 -11 -4 -15 -9z"/>
 <path d="M2536 1071 c-4 -5 -2 -12 3 -15 5 -4 12 -2 15 3 4 5 2 12 -3 15 -5 4 -12 2 -15 -3z"/>
 <path d="M2356 1011 c-4 -5 -2 -12 3 -15 5 -4 12 -2 15 3 4 5 2 12 -3 15 -5 4 -12 2 -15 -3z"/>
 <path d="M1895 990 c-4 -6 -3 -16 3 -22 6 -6 12 -6 17 2 4 6 3 16 -3 22 -6 6 -12 6 -17 -2z"/>
 <path d="M1931 972 l-33 -28 26 -53 c15 -28 31 -49 36 -46 5 3 7 12 4 19 -5 13 9 29 29 32 4 1 9 2 11 3 8 2 -20 95 -29 98 -6 1 -25 -10 -44 -25z"/>
 <path d="M1495 847 c-22 -5 -68 -11 -102 -12 -70 -2 -84 -8 -54 -24 11 -7 23 -26 27 -46 7 -41 15 -48 72 -64 24 -7 63 -30 86 -51 41 -38 44 -39 82 -29 57 16 60 23 31 71 -14 24 -25 46 -26 51 0 4 -8 21 -16 37 -8 16 -15 31 -14 32 2 2 -3 13 -10 26 -13 24 -17 25 -76 9z m71 -50 c1 -10 9 -29 18 -42 18 -27 7 -41 -34 -46 -43 -4 -75 19 -87 61 -10 37 -9 39 16 43 52 9 84 3 87 -16z"/>
 <path d="M2986 801 c-4 -5 -2 -12 3 -15 5 -4 12 -2 15 3 4 5 2 12 -3 15 -5 4 -12 2 -15 -3z"/>
 <path d="M2979 766 c-1 -3 -2 -9 -3 -13 -1 -5 -5 -14 -9 -20 -5 -7 -5 -13 -1 -13 3 0 1 -6 -5 -14 -8 -10 -9 -16 -1 -21 5 -3 11 -4 11 -1 4 16 7 26 9 31 1 3 3 8 4 13 1 4 5 12 9 19 4 6 3 14 -3 18 -5 3 -11 4 -11 1z"/>
 <path d="M2305 680 c-4 -6 -3 -16 3 -22 6 -6 12 -6 17 2 4 6 3 16 -3 22 -6 6 -12 6 -17 -2z"/>
 <path d="M2236 671 c-4 -5 -2 -12 3 -15 5 -4 12 -2 15 3 4 5 2 12 -3 15 -5 4 -12 2 -15 -3z"/>
 <path d="M2920 621 c-11 -23 -16 -42 -10 -46 5 -3 18 12 30 34 11 23 16 42 10 46 -5 3 -18 -12 -30 -34z"/>
 <path d="M2276 631 c-4 -5 -2 -12 3 -15 5 -4 12 -2 15 3 4 5 2 12 -3 15 -5 4 -12 2 -15 -3z"/>
 <path d="M2566 571 c-4 -5 -2 -12 3 -15 5 -4 12 -2 15 3 4 5 2 12 -3 15 -5 4 -12 2 -15 -3z"/>
 <path d="M2876 541 c-4 -5 -2 -12 3 -15 5 -4 12 -2 15 3 4 5 2 12 -3 15 -5 4 -12 2 -15 -3z"/>
 <path d="M2816 471 c-4 -5 -2 -12 3 -15 5 -4 12 -2 15 3 4 5 2 12 -3 15 -5 4 -12 2 -15 -3z"/>
 <path d="M2706 381 c-4 -5 -2 -12 3 -15 5 -4 12 -2 15 3 4 5 2 12 -3 15 -5 4 -12 2 -15 -3z"/>
 </g>
<g id="layer3" fill="#8fa7b7" stroke="none">
 <path d="M1764 2771 c-172 -47 -401 -199 -454 -302 -10 -19 -26 -64 -35 -99 -36 -140 -53 -150 -240 -143 -235 10 -396 -42 -528 -170 -81 -79 -107 -120 -174 -281 -154 -367 -165 -432 -112 -635 34 -127 91 -224 194 -327 102 -102 187 -153 301 -180 98 -23 242 -14 354 22 113 36 215 37 320 5 68 -21 80 -29 135 -89 225 -246 297 -288 533 -312 56 -5 155 -23 218 -40 141 -37 244 -39 360 -10 121 31 198 74 284 161 89 89 129 154 181 290 21 56 43 107 50 115 18 22 55 17 169 -23 94 -32 118 -37 230 -41 154 -5 219 9 380 80 88 39 141 55 225 70 135 22 161 31 250 77 78 40 265 212 265 244 0 26 36 150 55 191 14 29 20 34 31 25 15 -13 34 -4 34 16 0 19 31 26 115 24 39 -1 100 1 136 6 64 7 66 7 72 -16 5 -19 9 -21 19 -11 19 19 56 14 69 -10 10 -19 13 -20 23 -6 6 8 31 21 56 29 55 18 90 64 90 122 0 50 -64 189 -84 181 -15 -6 -96 78 -96 100 0 7 -17 26 -37 41 -21 16 -45 37 -54 48 -9 11 -22 17 -30 15 -8 -3 -39 12 -69 32 -130 87 -291 162 -420 193 -36 9 -126 23 -200 31 -74 9 -162 22 -195 31 -91 23 -256 107 -369 187 -215 152 -349 190 -551 154 -117 -21 -153 -20 -255 5 -126 31 -236 30 -330 -5 -131 -48 -145 -50 -193 -32 -23 9 -73 43 -111 75 -150 128 -255 171 -426 177 -92 3 -130 0 -186 -15z m316 -46 c89 -24 189 -80 284 -160 53 -44 107 -80 130 -87 35 -11 47 -9 115 16 42 16 108 36 148 44 77 17 124 14 297 -23 74 -16 84 -16 187 0 204 33 334 6 493 -100 50 -34 118 -79 151 -101 78 -52 222 -117 305 -138 36 -8 126 -22 200 -30 213 -24 322 -60 514 -169 60 -34 122 -70 138 -79 36 -20 115 -97 183 -178 28 -32 55 -59 62 -60 15 0 27 -96 18 -149 -6 -38 -9 -41 -40 -41 -19 0 -37 -4 -40 -10 -4 -6 -16 -3 -31 6 -13 9 -27 14 -31 11 -3 -4 -15 0 -27 8 -24 17 -92 20 -102 4 -4 -7 -10 -7 -16 -1 -11 11 -138 4 -154 -10 -7 -5 -22 -4 -37 1 -19 7 -28 6 -37 -4 -6 -8 -18 -11 -26 -8 -8 3 -29 -10 -48 -29 -35 -35 -66 -115 -66 -170 0 -17 -5 -28 -14 -28 -16 0 -55 -69 -49 -86 2 -6 -28 -41 -66 -77 -101 -95 -200 -141 -357 -166 -99 -15 -141 -28 -235 -70 -153 -68 -222 -84 -344 -84 -123 1 -195 15 -304 60 -96 39 -135 40 -163 3 -10 -14 -37 -75 -58 -135 -50 -138 -88 -201 -170 -284 -77 -78 -140 -114 -246 -141 -116 -30 -233 -27 -374 10 -63 16 -164 34 -224 40 -215 22 -302 71 -458 257 -38 46 -89 94 -114 109 -104 61 -256 72 -399 29 -108 -32 -261 -44 -348 -25 -200 41 -386 226 -456 452 -47 156 -35 300 40 472 22 50 58 137 80 193 65 166 153 265 291 328 98 45 185 58 359 52 221 -6 225 -3 276 172 13 47 35 104 48 126 44 76 265 212 405 249 72 19 240 20 310 1z"/>
 <path d="M1835 2650 c-3 -6 -10 -8 -15 -5 -5 3 -25 -1 -45 -9 -19 -8 -38 -15 -40 -15 -9 -1 -129 -63 -142 -73 -7 -6 -11 -14 -8 -18 3 -5 40 11 83 33 43 23 86 43 96 45 10 2 30 8 45 14 14 5 61 11 103 11 43 1 79 7 80 12 4 14 -148 19 -157 5z"/>
 <path d="M2015 2641 c-3 -6 0 -13 7 -15 7 -2 34 -11 61 -20 26 -8 47 -13 47 -10 0 3 20 -9 44 -26 25 -16 47 -26 50 -21 6 9 -44 51 -67 55 -7 2 -28 10 -48 19 -53 24 -86 30 -94 18z"/>
 <path d="M2237 2542 c-4 -5 9 -23 27 -41 19 -18 36 -29 39 -23 4 5 -9 23 -27 41 -19 18 -36 29 -39 23z"/>
 <path d="M1518 2482 c-43 -46 -98 -129 -102 -154 -1 -7 -5 -19 -9 -25 -5 -7 -5 -13 -1 -13 3 0 1 -7 -6 -15 -7 -8 -9 -15 -5 -15 4 0 2 -7 -5 -15 -14 -17 -6 -50 10 -40 6 4 10 14 9 23 -1 10 0 20 1 25 1 4 4 12 5 17 1 6 4 12 5 15 1 3 3 8 4 13 4 24 74 132 112 172 25 27 41 51 36 54 -5 3 -30 -16 -54 -42z"/>
 <path d="M2115 2460 c-3 -5 0 -13 8 -16 23 -8 92 0 92 11 0 14 -92 19 -100 5z"/>
 <path d="M2301 2451 c-10 -17 -9 -22 4 -27 26 -10 42 13 23 32 -15 15 -17 15 -27 -5z"/>
 <path d="M2836 2461 c-4 -5 -2 -12 3 -15 5 -4 12 -2 15 3 4 5 2 12 -3 15 -5 4 -12 2 -15 -3z"/>
 <path d="M2065 2451 c-3 -6 -10 -9 -15 -6 -5 3 -11 1 -15 -5 -4 -6 -10 -8 -13 -6 -4 2 -18 -4 -31 -13 -14 -11 -19 -21 -14 -24 6 -4 22 3 37 14 14 11 26 17 26 14 0 -4 6 -3 13 3 6 6 15 11 20 11 8 1 11 11 4 17 -3 3 -8 0 -12 -5z"/>
 <path d="M2245 2450 c-8 -12 20 -24 35 -15 6 3 8 11 5 16 -8 12 -32 12 -40 -1z"/>
 <path d="M2725 2444 c-43 -22 -94 -73 -116 -116 -11 -21 -17 -38 -13 -38 4 0 1 -6 -5 -14 -8 -10 -9 -16 -1 -21 5 -3 11 -4 11 -1 1 3 2 9 3 14 1 4 11 25 23 47 27 51 72 93 115 108 35 12 49 30 26 35 -7 1 -26 -5 -43 -14z"/>
 <path d="M2885 2451 c-6 -11 13 -26 22 -17 3 3 11 2 17 -3 6 -5 29 -14 51 -21 22 -7 58 -23 80 -35 22 -13 42 -23 45 -23 3 -1 12 -3 21 -7 8 -3 48 12 90 33 41 21 79 37 86 35 15 -5 26 14 13 22 -6 4 -17 2 -24 -4 -7 -6 -15 -8 -19 -5 -3 3 -32 -8 -64 -25 -76 -40 -80 -40 -133 -9 -53 32 -129 60 -140 53 -5 -3 -11 -1 -15 5 -8 13 -22 13 -30 1z"/>
 <path d="M3335 2440 c-3 -5 0 -13 9 -16 21 -8 61 -1 61 11 0 14 -62 19 -70 5z"/>
 <path d="M3465 2430 c-3 -5 -3 -11 2 -12 4 0 13 -2 18 -3 6 -1 32 -12 59 -24 32 -14 53 -18 59 -12 9 9 -46 39 -85 44 -10 2 -21 6 -24 10 -10 10 -22 9 -29 -3z"/>
 <path d="M1931 2376 c-25 -27 -58 -39 -67 -25 -3 5 -9 7 -14 4 -5 -3 -11 -1 -15 5 -9 14 -88 13 -103 -2 -7 -7 -12 -9 -12 -5 0 15 -58 -23 -87 -56 -17 -19 -44 -70 -62 -113 -18 -44 -35 -86 -39 -96 -6 -15 -11 -15 -59 3 -40 16 -54 26 -62 50 -14 40 -35 28 -27 -14 4 -17 16 -41 27 -53 22 -24 100 -50 123 -41 8 3 22 31 31 62 37 130 80 201 139 232 30 16 125 21 145 9 6 -4 11 -4 11 0 0 3 6 1 14 -5 10 -9 20 -9 33 -3 29 16 65 59 55 66 -5 3 -19 -5 -31 -18z"/>
 <path d="M2082 2388 c-6 -6 -12 -9 -12 -5 0 4 -14 0 -30 -8 -17 -9 -28 -20 -25 -25 4 -6 19 -3 38 7 18 9 40 17 49 17 10 1 18 6 18 11 1 15 -24 17 -38 3z"/>
 <path d="M2195 2390 c-6 -10 14 -23 31 -19 5 1 16 -1 24 -4 35 -15 100 -36 100 -32 0 2 21 -8 47 -23 l46 -27 -2 -145 c-3 -170 -6 -188 -36 -196 -18 -4 -33 6 -75 50 -50 53 -135 115 -162 120 -7 1 -19 5 -25 9 -7 5 -13 5 -13 1 0 -3 -7 -1 -15 6 -8 6 -19 9 -25 5 -14 -9 -1 -28 15 -21 7 2 18 -1 24 -7 6 -6 11 -8 11 -4 0 11 110 -61 148 -97 19 -17 54 -57 79 -89 43 -56 46 -58 64 -41 10 9 19 24 19 32 0 8 7 20 16 27 14 10 17 38 20 178 l3 167 -32 24 c-27 20 -51 31 -87 41 -3 1 -23 10 -44 19 -22 10 -50 19 -63 20 -13 2 -26 6 -30 9 -10 10 -31 8 -38 -3z"/>
 <path d="M3616 2372 c-3 -5 8 -18 24 -30 31 -23 51 -14 22 10 -27 23 -40 29 -46 20z"/>
 <path d="M1976 2331 c-10 -11 -13 -22 -8 -25 5 -3 17 3 26 13 10 11 13 22 8 25 -5 3 -17 -3 -26 -13z"/>
 <path d="M3686 2322 c-3 -5 8 -21 23 -36 16 -15 31 -23 35 -18 3 5 -8 21 -23 36 -16 15 -31 23 -35 18z"/>
 <path d="M1922 2292 c-19 -13 -30 -13 -53 -5 -39 15 -47 -2 -9 -22 27 -14 33 -14 59 0 17 8 32 19 36 24 10 17 -10 19 -33 3z"/>
 <path d="M1735 2288 c-32 -17 -55 -40 -49 -49 5 -8 67 29 73 44 5 14 -3 16 -24 5z"/>
 <path d="M3747 2254 c-3 -4 4 -25 15 -48 12 -22 23 -44 24 -48 1 -5 3 -11 4 -15 1 -5 1 -18 1 -30 -1 -11 3 -24 8 -28 15 -9 25 21 15 43 -4 9 -8 19 -8 22 -1 3 -5 11 -9 18 -5 6 -6 12 -2 12 3 0 -4 18 -15 40 -22 42 -23 44 -33 34z"/>
 <path d="M1648 2183 c-27 -60 -36 -147 -17 -169 7 -8 43 -31 81 -49 37 -19 84 -46 103 -61 20 -15 38 -24 41 -21 4 3 8 29 10 58 7 91 52 148 138 174 15 4 17 8 8 17 -9 9 -23 7 -57 -10 -51 -25 -101 -88 -111 -139 -3 -18 -9 -33 -13 -31 -3 2 -45 23 -93 47 -88 44 -88 44 -88 83 0 21 9 60 19 88 25 65 7 77 -21 13z"/>
 <path d="M2574 2217 c-7 -20 -2 -47 11 -50 14 -3 19 43 6 56 -7 7 -12 6 -17 -6z"/>
 <path d="M3045 2161 c-7 -13 17 -24 40 -19 9 1 16 8 16 13 0 14 -48 19 -56 6z"/>
 <path d="M3125 2160 c-7 -11 15 -23 36 -19 13 2 59 -13 80 -26 4 -3 10 -1 14 4 7 12 -51 44 -65 36 -5 -3 -11 -1 -15 5 -8 13 -42 13 -50 0z"/>
 <path d="M2977 2144 c-15 -8 -25 -19 -22 -24 6 -10 61 10 64 25 4 15 -12 15 -42 -1z"/>
 <path d="M3916 2142 c-9 -15 4 -144 17 -159 13 -17 39 -16 63 2 19 14 19 15 -2 21 -17 4 -23 16 -28 56 -4 28 -5 52 -3 55 2 2 31 -7 63 -19 33 -13 64 -23 69 -23 6 0 16 -4 23 -8 6 -5 17 -5 22 -2 13 8 2 26 -13 23 -7 -1 -39 10 -72 26 -68 31 -129 44 -139 28z"/>
 <path d="M2576 2133 c-8 -9 -8 -48 2 -57 4 -4 8 -12 8 -17 1 -5 3 -11 4 -14 1 -3 4 -9 5 -15 1 -5 4 -12 5 -15 1 -3 3 -9 4 -15 0 -5 4 -10 9 -10 4 0 10 0 13 0 4 0 1 7 -6 15 -7 8 -9 15 -5 15 4 0 3 6 -3 13 -6 6 -11 15 -11 20 -1 4 -1 10 -2 15 -1 4 0 19 1 34 1 26 -11 43 -24 31z"/>
 <path d="M2906 2091 c-15 -16 -23 -31 -18 -35 5 -3 21 8 36 23 15 16 23 31 18 35 -5 3 -21 -8 -36 -23z"/>
 <path d="M3266 2112 c-8 -14 81 -94 102 -91 9 2 27 -2 40 -9 12 -7 22 -10 22 -7 0 4 12 -2 28 -13 43 -30 50 -33 56 -23 6 9 -36 41 -58 45 -6 1 -21 8 -33 14 -13 7 -23 9 -23 5 0 -4 -5 -2 -12 5 -7 7 -19 12 -27 12 -8 0 -32 16 -52 36 -20 20 -39 31 -43 26z"/>
 <path d="M3032 2088 c-7 -7 -12 -9 -12 -5 0 4 -9 3 -20 -3 -11 -6 -18 -15 -15 -21 4 -5 15 -4 28 3 12 7 27 12 32 13 13 0 19 19 8 22 -5 2 -14 -2 -21 -9z"/>
 <path d="M3145 2091 c-7 -12 12 -24 24 -17 5 3 32 -14 59 -39 28 -25 53 -41 56 -36 7 11 -82 94 -94 86 -5 -3 -11 -1 -15 5 -8 13 -22 13 -30 1z"/>
 <path d="M855 2081 c-7 -13 17 -24 40 -19 9 1 16 8 16 13 0 14 -48 19 -56 6z"/>
 <path d="M1085 2081 c-7 -13 17 -24 40 -19 9 1 16 8 16 13 0 14 -48 19 -56 6z"/>
 <path d="M797 2074 c-4 -4 -18 -9 -33 -10 -53 -6 -223 -132 -208 -156 3 -5 30 14 59 41 55 49 148 101 190 105 6 1 11 5 13 11 4 12 -12 18 -21 9z"/>
 <path d="M1165 2070 c-3 -5 -4 -11 -1 -11 16 -4 26 -7 31 -9 3 -1 8 -3 13 -4 4 -1 22 -10 40 -21 31 -19 38 -39 14 -41 -7 -1 -13 -2 -14 -3 -2 -2 -16 -5 -33 -8 -48 -8 -89 -5 -112 10 -7 5 -18 5 -23 2 -13 -8 -2 -26 13 -23 7 1 21 -3 32 -9 25 -13 91 -9 111 7 7 7 14 9 14 5 0 -4 7 -2 15 5 8 7 15 9 15 5 0 -4 7 -2 15 5 8 7 15 16 15 21 0 10 -56 50 -78 54 -9 2 -18 4 -19 5 -2 2 -6 3 -10 4 -5 1 -13 5 -20 9 -6 4 -14 3 -18 -3z"/>
 <path d="M4165 2071 c-7 -12 12 -24 25 -16 11 7 4 25 -10 25 -5 0 -11 -4 -15 -9z"/>
 <path d="M1972 2050 c-18 -11 -30 -25 -27 -30 3 -5 21 0 40 11 19 12 32 25 29 30 -7 11 -4 12 -42 -11z"/>
 <path d="M2065 2060 c-6 -9 -4 -11 20 -14 6 -1 21 -8 34 -15 16 -9 26 -10 34 -2 11 11 -3 20 -37 25 -8 1 -19 5 -22 9 -10 10 -22 9 -29 -3z"/>
 <path d="M3805 2058 c-9 -22 -2 -68 10 -71 14 -3 19 63 6 76 -7 7 -12 5 -16 -5z"/>
 <path d="M4215 2060 c-3 -5 -3 -11 2 -12 4 0 13 -2 18 -3 6 -1 17 -5 26 -9 24 -10 164 -3 161 9 -1 6 -40 11 -88 11 -47 1 -88 5 -91 8 -9 9 -21 7 -28 -4z"/>
 <path d="M2946 2041 c-10 -11 -13 -22 -8 -25 5 -3 17 3 26 13 10 11 13 22 8 25 -5 3 -17 -3 -26 -13z"/>
 <path d="M2860 2031 c-6 -12 -6 -22 -1 -26 6 -3 15 3 21 14 6 12 6 22 1 26 -6 3 -15 -3 -21 -14z"/>
 <path d="M4455 2040 c-8 -12 20 -24 35 -15 6 3 8 11 5 16 -8 12 -32 12 -40 -1z"/>
 <path d="M4515 2031 c-6 -11 13 -26 22 -17 3 3 12 1 20 -5 7 -6 13 -8 13 -4 0 4 6 2 13 -4 8 -6 22 -12 33 -14 34 -7 146 -62 251 -125 108 -64 154 -69 56 -6 -66 43 -261 144 -271 142 -4 -1 -17 3 -30 10 -12 7 -27 10 -32 7 -5 -3 -11 -1 -15 5 -4 6 -10 8 -15 5 -5 -3 -11 -1 -15 5 -8 13 -22 13 -30 1z"/>
 <path d="M2166 2021 c-3 -5 5 -16 19 -25 24 -16 45 -6 22 11 -24 19 -36 23 -41 14z"/>
 <path d="M1929 2006 c-1 -3 -2 -9 -3 -13 -1 -5 -5 -14 -10 -21 -7 -12 3 -32 66 -124 22 -33 22 -38 3 -38 -8 0 -33 16 -55 36 -27 24 -45 34 -57 30 -14 -6 -9 -14 28 -52 70 -71 101 -87 164 -82 30 3 61 10 69 17 9 8 39 15 67 17 28 2 59 9 69 14 9 5 20 7 23 3 11 -10 37 18 37 39 0 39 -73 153 -91 142 -5 -3 4 -24 21 -47 31 -42 38 -71 20 -82 -6 -4 -36 -8 -68 -10 -36 -2 -60 -9 -67 -19 -13 -18 -102 -36 -91 -18 3 6 -7 20 -24 32 -17 12 -40 40 -53 62 -12 22 -27 50 -34 61 -8 14 -9 25 -2 33 7 8 6 14 -1 19 -5 3 -11 4 -11 1z"/>
 <path d="M2918 2003 c-8 -15 -1 -53 12 -68 19 -23 32 -7 14 20 -9 13 -13 29 -10 34 4 5 2 12 -3 15 -5 4 -11 3 -13 -1z"/>
 <path d="M4095 1990 c-6 -10 14 -23 31 -19 5 1 12 0 17 -1 4 -1 10 -3 15 -4 4 -1 17 -7 29 -14 13 -7 24 -8 28 -3 3 6 -4 15 -15 21 -11 6 -20 8 -20 4 0 -3 -7 -1 -15 6 -8 7 -15 9 -15 4 0 -4 -5 -3 -12 4 -15 15 -35 16 -43 2z"/>
 <path d="M892 1970 c-24 -11 -41 -24 -38 -29 7 -11 92 19 95 34 4 17 -13 15 -57 -5z"/>
 <path d="M2837 1970 c-9 -11 -23 -20 -30 -20 -16 0 -79 -63 -76 -76 1 -5 -1 -17 -6 -27 -4 -11 -3 -23 3 -29 8 -8 13 -7 18 6 4 9 4 20 1 23 -12 11 35 63 73 83 43 22 56 38 43 51 -5 5 -16 1 -26 -11z"/>
 <path d="M3288 1984 c-4 -4 -3 -14 2 -23 4 -9 8 -24 7 -33 -1 -9 3 -18 8 -20 14 -4 14 50 0 68 -6 9 -14 12 -17 8z"/>
 <path d="M3526 1962 c-3 -6 1 -15 8 -21 8 -7 17 -8 20 -3 3 6 -1 15 -8 21 -8 7 -17 8 -20 3z"/>
 <path d="M2585 1921 c-15 -22 -27 -45 -29 -53 -1 -7 -5 -18 -9 -25 -4 -6 -3 -14 2 -17 5 -4 12 -2 16 4 3 5 4 10 0 10 -3 0 10 25 29 55 20 30 31 57 26 60 -5 3 -21 -12 -35 -34z"/>
 <path d="M4226 1942 c-3 -5 1 -16 10 -23 8 -7 22 -25 30 -41 8 -16 19 -26 24 -23 12 8 -10 53 -38 78 -11 10 -23 14 -26 9z"/>
 <path d="M795 1906 c-21 -18 -34 -35 -29 -38 5 -3 26 9 48 27 21 18 34 35 29 38 -6 4 -27 -8 -48 -27z"/>
 <path d="M1375 1930 c-3 -5 0 -13 8 -16 23 -8 102 0 102 11 0 14 -102 19 -110 5z"/>
 <path d="M1305 1920 c-3 -6 -11 -8 -16 -4 -5 3 -16 0 -24 -6 -8 -7 -15 -9 -15 -5 0 4 -7 2 -15 -5 -8 -7 -15 -9 -15 -5 0 4 -7 2 -15 -5 -8 -7 -15 -10 -15 -6 0 5 -44 -11 -132 -48 -21 -9 -38 -14 -38 -11 0 2 13 20 30 38 26 30 28 36 15 47 -16 13 -39 4 -29 -11 3 -6 -3 -20 -14 -32 -24 -27 -36 -63 -23 -71 10 -6 175 57 199 76 6 6 12 7 12 3 0 -4 7 -2 15 5 8 7 15 9 15 5 0 -4 6 -2 13 4 8 6 17 8 20 5 3 -3 12 -2 19 2 7 5 18 9 23 9 14 0 19 19 7 23 -6 2 -13 -2 -17 -8z"/>
 <path d="M1515 1921 c-7 -12 12 -24 25 -16 11 7 4 25 -10 25 -5 0 -11 -4 -15 -9z"/>
 <path d="M2885 1913 c-38 -20 -86 -64 -79 -74 2 -4 0 -10 -6 -14 -5 -3 -10 -19 -10 -35 0 -16 5 -32 10 -35 6 -4 8 -10 5 -15 -12 -20 50 -115 67 -104 5 3 3 13 -6 23 -25 28 -49 93 -49 136 0 35 5 44 40 70 22 17 48 35 58 41 30 17 3 24 -30 7z"/>
 <path d="M4025 1920 c-3 -6 -10 -8 -15 -5 -11 7 -65 -20 -75 -36 -14 -22 -36 -152 -28 -160 5 -5 24 -4 43 1 53 15 104 12 162 -10 30 -11 56 -16 61 -11 11 11 6 14 -63 40 -30 12 -77 21 -104 21 l-49 0 7 38 c3 20 6 46 6 58 0 24 40 46 85 48 17 1 29 5 28 10 -3 14 -50 19 -58 6z"/>
 <path d="M962 1908 c-6 -6 -12 -8 -12 -4 0 5 -7 3 -15 -4 -8 -7 -15 -10 -15 -6 0 4 -17 -2 -37 -13 -45 -23 -88 -66 -75 -75 5 -3 18 4 28 15 17 18 85 60 107 65 4 1 10 3 15 4 4 1 15 3 24 4 10 0 18 6 18 11 1 15 -24 17 -38 3z"/>
 <path d="M1565 1910 c-3 -5 -4 -11 -1 -11 14 -3 27 -7 34 -9 4 -2 12 -4 17 -4 6 -1 20 -7 32 -14 13 -7 24 -8 28 -3 3 6 -4 15 -15 21 -11 6 -20 8 -20 4 0 -3 -7 -1 -15 6 -9 7 -18 10 -22 7 -3 -4 -12 -2 -19 4 -8 7 -14 7 -19 -1z"/>
 <path d="M3805 1910 c-4 -6 -5 -20 -4 -33 2 -12 1 -26 -2 -32 -4 -5 -12 -28 -19 -50 -7 -22 -17 -45 -22 -52 -5 -7 -7 -16 -4 -22 8 -12 -83 -113 -95 -105 -6 3 -5 11 2 20 13 16 4 48 -11 39 -6 -4 -10 -14 -9 -23 1 -10 -1 -25 -5 -34 -9 -20 0 -38 17 -38 16 0 107 92 111 111 2 8 13 36 25 62 12 27 24 59 25 73 2 13 6 27 9 31 10 10 8 51 -2 58 -5 3 -12 1 -16 -5z"/>
 <path d="M4105 1910 c-4 -6 7 -15 25 -21 l31 -11 -29 -18 c-17 -10 -33 -24 -37 -31 -10 -14 24 -42 42 -35 7 3 15 1 19 -5 3 -6 20 -9 38 -8 17 1 39 -2 49 -6 10 -4 21 -5 24 -1 3 3 12 1 20 -5 7 -6 13 -8 13 -4 0 4 6 3 13 -3 22 -18 66 -32 72 -22 6 10 -23 28 -57 34 -13 3 -24 5 -25 7 -2 1 -6 2 -10 4 -5 1 -16 5 -25 9 -9 4 -21 5 -27 2 -5 -4 -13 -1 -16 5 -4 5 -21 9 -39 8 -17 -2 -39 2 -49 7 -17 10 -15 13 19 33 36 22 37 23 18 41 -24 23 -60 34 -69 20z"/>
 <path d="M3587 1904 c-3 -3 10 -30 28 -59 19 -29 31 -55 28 -58 -3 -4 -3 -14 1 -23 5 -13 10 -14 18 -6 6 6 7 18 3 29 -4 10 -9 24 -11 31 -3 14 -52 92 -57 92 -2 0 -6 -3 -10 -6z"/>
 <path d="M532 1887 c-15 -19 -52 -96 -50 -104 0 -5 -2 -16 -7 -26 -4 -11 -3 -23 3 -29 8 -8 13 -7 18 6 4 9 4 19 1 22 -3 3 9 35 27 70 19 35 30 67 26 69 -4 3 -12 -1 -18 -8z"/>
 <path d="M3362 1884 c-13 -9 -29 -13 -37 -10 -21 7 -28 -9 -10 -24 12 -10 20 -9 38 3 37 24 58 23 114 -5 29 -15 55 -23 58 -18 6 10 -53 48 -83 53 -12 2 -25 6 -28 10 -11 11 -28 8 -52 -9z"/>
 <path d="M1687 1864 c-3 -3 28 -38 70 -77 68 -65 103 -111 103 -136 0 -19 -51 -70 -65 -64 -9 3 -18 -4 -24 -20 -7 -17 -34 -38 -83 -63 -138 -72 -239 -201 -268 -340 -6 -29 -10 -111 -8 -182 3 -116 1 -132 -15 -142 -23 -14 -13 -30 16 -23 46 12 49 21 42 117 -19 258 59 426 243 525 81 43 174 117 193 153 16 29 -20 90 -99 171 -68 70 -95 91 -105 81z"/>
 <path d="M741 1846 c-7 -8 -8 -17 -3 -20 6 -3 15 1 21 8 7 8 8 17 3 20 -6 3 -15 -1 -21 -8z"/>
 <path d="M4315 1850 c-3 -5 -4 -11 -1 -11 17 -4 26 -7 78 -31 31 -15 81 -45 112 -67 30 -22 58 -37 61 -31 11 17 -153 125 -202 133 -10 1 -23 6 -30 10 -6 4 -14 3 -18 -3z"/>
 <path d="M695 1769 c-15 -28 -28 -61 -29 -73 -2 -11 -7 -29 -11 -38 -9 -23 1 -51 16 -43 5 4 9 17 8 28 -2 24 1 34 37 114 30 69 12 79 -21 12z"/>
 <path d="M4986 1802 c-3 -5 3 -17 13 -26 11 -10 22 -13 25 -8 3 5 -3 17 -13 26 -11 10 -22 13 -25 8z"/>
 <path d="M770 1765 c-12 -19 -23 -43 -25 -53 -2 -9 -4 -18 -5 -19 -2 -2 -3 -6 -5 -10 -1 -5 -5 -16 -10 -26 -4 -11 -3 -23 3 -29 8 -8 13 -7 18 6 4 9 4 20 0 23 -3 3 -1 12 5 20 6 7 9 13 5 13 -3 0 4 17 17 38 13 20 27 42 30 49 4 6 3 14 -2 17 -5 4 -19 -10 -31 -29z"/>
 <path d="M2535 1788 c-9 -24 -1 -103 10 -103 14 0 19 95 6 108 -7 7 -12 5 -16 -5z"/>
 <path d="M3556 1793 c-3 -3 0 -13 6 -20 7 -8 14 -33 17 -56 6 -45 24 -53 29 -13 5 38 -35 106 -52 89z"/>
 <path d="M2724 1766 c-4 -10 -2 -22 4 -28 8 -8 13 -7 18 6 4 10 2 22 -4 28 -8 8 -13 7 -18 -6z"/>
 <path d="M3156 1772 c-3 -6 4 -23 17 -38 31 -36 42 -18 12 20 -13 16 -25 24 -29 18z"/>
 <path d="M3205 1771 c-7 -12 12 -24 25 -16 11 7 4 25 -10 25 -5 0 -11 -4 -15 -9z"/>
 <path d="M3247 1754 c-4 -4 7 -22 23 -41 17 -18 30 -45 30 -58 0 -13 5 -27 10 -30 17 -10 23 23 10 54 -13 33 -63 84 -73 75z"/>
 <path d="M5047 1744 c-8 -9 96 -103 106 -97 5 3 -8 23 -30 45 -42 43 -67 60 -76 52z"/>
 <path d="M4395 1730 c-3 -5 11 -20 32 -34 41 -26 72 -55 104 -99 18 -23 20 -42 20 -135 0 -77 -4 -118 -16 -146 -16 -38 -16 -41 1 -53 21 -16 39 -6 23 13 -9 11 -9 17 1 29 7 8 10 21 7 30 -4 8 -2 17 3 20 15 9 13 198 -2 213 -7 7 -9 12 -5 12 14 0 -43 71 -84 105 -54 46 -76 58 -84 45z"/>
 <path d="M2735 1710 c-8 -13 44 -102 56 -95 7 5 -37 105 -46 105 -2 0 -7 -4 -10 -10z"/>
 <path d="M3207 1703 c-3 -5 -1 -30 3 -57 7 -47 6 -50 -31 -87 -23 -23 -34 -41 -28 -45 12 -7 69 45 73 67 2 8 6 22 11 32 14 32 -12 116 -28 90z"/>
 <path d="M466 1691 c-4 -6 -5 -15 -2 -19 3 -5 -8 -25 -25 -45 -16 -19 -25 -38 -21 -41 11 -6 53 36 56 55 1 8 5 20 10 27 5 8 4 18 -2 24 -6 6 -12 6 -16 -1z"/>
 <path d="M2235 1681 c-7 -12 12 -24 25 -16 11 7 4 25 -10 25 -5 0 -11 -4 -15 -9z"/>
 <path d="M2325 1680 c-4 -7 1 -14 14 -17 12 -3 21 -11 21 -19 0 -7 8 -19 18 -26 19 -13 102 -165 102 -186 0 -8 -9 -10 -24 -6 -35 8 -43 -14 -9 -27 15 -6 34 -12 41 -13 45 -8 144 -161 146 -226 1 -14 6 -26 11 -28 13 -4 19 24 10 46 -4 9 -8 27 -9 39 -2 21 0 21 19 8 60 -43 137 -85 193 -105 71 -26 84 -43 84 -109 0 -63 -34 -139 -85 -188 -43 -42 -157 -119 -157 -107 0 4 -9 -1 -20 -11 -11 -10 -17 -22 -14 -27 3 -5 15 -1 25 8 11 10 26 19 34 20 25 4 88 46 138 93 61 56 99 130 103 196 6 98 -21 137 -122 178 -34 13 -88 43 -120 65 -59 40 -169 148 -169 167 -1 6 -17 39 -37 75 -20 36 -46 86 -57 111 -20 45 -51 81 -74 85 -7 2 -22 6 -33 9 -12 4 -25 2 -29 -5z"/>
 <path d="M4186 1682 c-3 -5 5 -19 18 -31 13 -13 26 -18 30 -13 3 5 -5 19 -18 31 -13 13 -26 18 -30 13z"/>
 <path d="M4578 1684 c-8 -7 48 -94 61 -94 19 0 19 14 1 34 -11 11 -27 31 -37 44 -10 13 -21 20 -25 16z"/>
 <path d="M2133 1655 c-72 -28 -115 -54 -108 -66 3 -4 23 0 43 11 21 11 61 28 89 37 29 10 53 22 53 28 2 17 -13 15 -77 -10z"/>
 <path d="M3996 1662 c-9 -15 4 -21 50 -23 69 -4 122 -46 116 -91 -2 -9 2 -19 8 -23 16 -10 24 23 10 40 -7 8 -9 15 -6 15 4 0 2 9 -4 20 -13 24 -51 50 -82 56 -13 2 -37 6 -54 10 -18 3 -34 1 -38 -4z"/>
 <path d="M2547 1653 c-4 -3 -2 -12 4 -20 6 -7 8 -13 4 -13 -4 0 -2 -7 5 -15 7 -8 10 -15 6 -15 -9 0 37 -88 73 -141 38 -57 117 -134 124 -122 4 6 -12 27 -34 49 -22 21 -54 59 -70 83 -28 40 -81 137 -85 154 -1 4 -3 9 -4 12 -1 3 -3 9 -4 14 -2 14 -12 22 -19 14z"/>
 <path d="M3576 1648 c-3 -7 -7 -35 -11 -63 -11 -85 -35 -155 -66 -190 -16 -18 -26 -36 -21 -39 10 -6 54 38 71 72 34 65 61 214 42 226 -6 4 -13 1 -15 -6z"/>
 <path d="M3912 1630 c-46 -33 -79 -87 -64 -102 7 -7 14 -2 22 13 18 35 62 80 88 90 13 5 20 13 17 19 -9 15 -19 12 -63 -20z"/>
 <path d="M4848 1644 c-4 -3 -25 -8 -47 -9 -46 -4 -64 -12 -55 -26 5 -9 68 -3 89 9 5 3 19 6 30 6 11 1 22 6 25 11 6 11 -32 19 -42 9z"/>
 <path d="M5005 1640 c-8 -13 20 -24 45 -17 11 3 23 1 26 -5 3 -5 12 -7 20 -4 7 3 16 1 19 -4 6 -9 51 -7 61 3 10 10 -7 28 -19 20 -15 -10 -38 -10 -54 0 -7 5 -17 6 -22 2 -5 -3 -12 -1 -16 5 -8 13 -52 13 -60 0z"/>
 <path d="M2876 1621 c-12 -18 39 -41 87 -40 40 2 51 -2 87 -35 22 -20 45 -34 51 -31 5 4 -12 26 -38 49 -43 39 -53 44 -102 45 -30 0 -60 6 -67 11 -8 7 -14 8 -18 1z"/>
 <path d="M4236 1621 c-4 -5 -2 -12 4 -16 6 -4 8 -10 5 -15 -3 -5 -1 -11 4 -14 5 -4 12 -2 15 3 4 5 2 12 -4 16 -6 4 -8 10 -5 15 3 5 1 11 -4 14 -5 4 -12 2 -15 -3z"/>
 <path d="M4685 1610 c-8 -12 20 -24 35 -15 6 3 8 11 5 16 -8 12 -32 12 -40 -1z"/>
 <path d="M2796 1602 c-7 -12 70 -86 82 -78 6 3 14 1 17 -5 4 -5 13 -8 20 -5 7 2 23 -7 36 -21 20 -21 73 -55 81 -52 2 0 16 -4 31 -10 42 -16 118 -13 153 7 57 31 125 125 106 144 -7 7 -15 0 -26 -23 -17 -40 -54 -82 -85 -99 -31 -16 -159 -10 -191 9 -14 8 -37 26 -52 40 -16 13 -28 21 -28 17 0 -5 -7 -3 -15 4 -8 6 -18 9 -23 6 -5 -3 -30 12 -55 34 -25 22 -48 37 -51 32z"/>
 <path d="M1976 1561 c-15 -16 -23 -31 -18 -35 5 -3 21 8 36 23 15 16 23 31 18 35 -5 3 -21 -8 -36 -23z"/>
 <path d="M379 1535 c-11 -25 -22 -56 -23 -69 -1 -12 -6 -27 -10 -34 -4 -7 -4 -17 -1 -22 8 -13 26 -3 24 13 -1 7 1 19 4 27 30 72 44 121 36 126 -5 3 -19 -15 -30 -41z"/>
 <path d="M655 1568 c-8 -20 0 -73 10 -73 13 0 18 72 5 80 -5 3 -12 0 -15 -7z"/>
 <path d="M1036 1563 c-3 -4 -19 -9 -34 -11 -34 -4 -51 -19 -29 -27 8 -4 26 -1 39 6 13 7 28 13 33 14 13 0 19 19 8 22 -5 2 -13 0 -17 -4z"/>
 <path d="M1105 1561 c-7 -12 12 -24 24 -16 5 3 12 1 16 -5 4 -6 11 -8 16 -4 5 3 7 10 3 15 -3 5 -9 7 -14 4 -5 -3 -11 -1 -15 5 -8 13 -22 13 -30 1z"/>
 <path d="M4254 1546 c-8 -21 3 -49 16 -41 5 3 10 15 10 25 0 25 -18 36 -26 16z"/>
 <path d="M724 1536 c-8 -21 3 -49 16 -41 5 3 10 15 10 25 0 25 -18 36 -26 16z"/>
 <path d="M1178 1534 c-3 -5 14 -30 37 -57 24 -26 46 -43 50 -37 3 5 -14 31 -38 57 -24 25 -46 42 -49 37z"/>
 <path d="M916 1501 c-15 -16 -23 -31 -18 -35 5 -3 21 8 36 23 15 16 23 31 18 35 -5 3 -21 -8 -36 -23z"/>
 <path d="M1922 1486 c-11 -18 -23 -42 -26 -53 -3 -10 -20 -24 -37 -30 -41 -16 -30 -36 12 -21 27 9 54 46 81 110 14 33 -10 28 -30 -6z"/>
 <path d="M3845 1500 c-16 -26 36 -93 56 -73 8 8 5 14 -10 22 -12 7 -21 20 -21 31 0 22 -16 35 -25 20z"/>
 <path d="M1002 1475 c-16 -14 -33 -25 -37 -25 -5 0 -23 -11 -41 -25 -24 -19 -33 -21 -37 -11 -3 7 -1 18 5 24 6 6 6 12 -1 16 -6 4 -12 5 -12 2 -3 -13 -6 -22 -13 -38 -11 -24 -3 -73 12 -73 7 0 18 11 25 25 7 13 28 34 48 45 57 32 102 72 91 79 -6 3 -24 -5 -40 -19z"/>
 <path d="M1095 1491 c-6 -11 29 -33 39 -24 7 7 -12 33 -25 33 -4 0 -10 -4 -14 -9z"/>
 <path d="M4164 1486 c-4 -9 -4 -19 -1 -22 3 -3 -4 -22 -16 -42 -12 -21 -31 -52 -42 -71 -11 -19 -37 -54 -58 -77 -21 -23 -34 -45 -29 -48 11 -6 102 87 102 104 0 6 12 27 27 46 14 20 27 43 28 52 1 9 6 25 10 35 4 11 3 23 -3 29 -8 8 -13 7 -18 -6z"/>
 <path d="M4250 1466 c-5 -15 -10 -31 -10 -35 0 -5 -9 -20 -20 -34 -11 -14 -16 -28 -12 -31 23 -14 82 98 63 117 -7 7 -14 2 -21 -17z"/>
 <path d="M3708 1429 c-52 -45 -58 -54 -57 -87 1 -20 0 -41 -2 -47 -2 -5 1 -12 6 -14 6 -1 17 16 26 40 9 24 34 58 54 76 36 31 40 32 59 18 41 -30 91 -52 116 -51 31 1 102 44 94 57 -3 5 -25 -2 -49 -16 -42 -25 -45 -25 -82 -10 -21 9 -54 31 -73 50 l-35 34 -57 -50z"/>
 <path d="M616 1451 c-10 -11 -18 -25 -20 -33 -1 -7 -5 -19 -9 -25 -5 -7 -5 -18 -2 -23 8 -13 27 -2 22 13 -3 7 6 26 19 44 26 35 17 54 -10 24z"/>
 <path d="M1146 1462 c-3 -6 1 -15 8 -21 8 -7 17 -8 20 -3 3 6 -1 15 -8 21 -8 7 -17 8 -20 3z"/>
 <path d="M3947 1453 c-16 -8 -25 -19 -20 -24 10 -10 77 11 83 26 8 16 -32 15 -63 -2z"/>
 <path d="M720 1445 c-7 -8 -16 -13 -20 -10 -11 7 -43 -32 -36 -44 4 -5 2 -12 -4 -16 -5 -3 -10 -26 -10 -50 0 -24 5 -47 10 -50 6 -4 8 -10 5 -15 -8 -14 23 -82 34 -75 6 3 8 11 6 18 -2 7 -9 26 -16 42 -12 33 -15 127 -5 144 4 6 4 16 0 23 -4 6 -3 8 4 4 6 -3 13 -2 17 4 4 6 10 8 15 5 4 -3 13 2 19 9 7 8 8 17 3 20 -6 3 -15 -1 -22 -9z"/>
 <path d="M2366 1441 c-9 -15 23 -36 35 -24 8 8 5 14 -9 22 -12 6 -23 7 -26 2z"/>
 <path d="M2225 1431 c-7 -13 17 -24 40 -19 9 1 16 8 16 13 0 14 -48 19 -56 6z"/>
 <path d="M1177 1423 c-2 -5 2 -23 10 -42 10 -23 17 -31 24 -24 7 7 6 21 -5 42 -17 32 -22 36 -29 24z"/>
 <path d="M2175 1421 c-7 -12 12 -24 25 -16 11 7 4 25 -10 25 -5 0 -11 -4 -15 -9z"/>
 <path d="M1268 1415 c-9 -9 7 -60 18 -58 5 1 10 8 12 15 3 16 -21 52 -30 43z"/>
 <path d="M2107 1399 c-21 -11 -35 -24 -32 -29 4 -6 23 -1 46 10 22 12 37 25 34 30 -7 12 -2 13 -48 -11z"/>
 <path d="M1787 1394 c-4 -4 -18 -8 -31 -10 -31 -3 -78 -33 -70 -45 3 -5 13 -5 24 1 27 14 73 33 85 34 6 1 11 5 13 11 4 12 -12 18 -21 9z"/>
 <path d="M334 1376 c-8 -21 3 -49 16 -41 5 3 10 15 10 25 0 25 -18 36 -26 16z"/>
 <path d="M2012 1332 c-23 -21 -42 -40 -42 -44 0 -4 -14 -31 -31 -60 -17 -28 -32 -61 -34 -72 -1 -12 -6 -29 -10 -39 -4 -11 -3 -23 3 -29 8 -8 13 -7 18 6 4 9 4 19 1 23 -11 11 80 170 118 205 51 47 31 56 -23 10z"/>
 <path d="M2225 1360 c-3 -6 -11 -8 -16 -4 -5 3 -16 0 -24 -6 -8 -7 -15 -10 -15 -6 0 8 -75 -29 -113 -56 -15 -11 -25 -24 -21 -29 3 -5 18 0 34 11 15 11 31 20 34 20 4 0 24 11 45 24 21 14 41 22 44 19 3 -3 12 -1 19 3 7 5 18 9 23 9 14 0 19 19 7 23 -6 2 -13 -2 -17 -8z"/>
 <path d="M2365 1361 c-6 -11 13 -26 22 -17 3 3 18 -1 34 -9 16 -9 30 -11 34 -5 6 10 -25 30 -60 36 -13 2 -26 0 -30 -5z"/>
 <path d="M4171 1332 c-6 -11 -8 -22 -5 -25 4 -3 -30 -42 -74 -86 -44 -45 -76 -83 -71 -87 11 -6 161 139 157 153 -1 4 3 18 10 30 7 13 8 24 3 28 -6 3 -15 -3 -20 -13z"/>
 <path d="M1646 1321 c-10 -11 -13 -22 -8 -25 5 -3 17 3 26 13 10 11 13 22 8 25 -5 3 -17 -3 -26 -13z"/>
 <path d="M2466 1321 c-4 -5 -2 -12 3 -15 5 -4 12 -2 15 3 4 5 2 12 -3 15 -5 4 -12 2 -15 -3z"/>
 <path d="M2775 1320 c-2 -4 1 -12 8 -18 21 -16 97 -53 97 -46 0 4 7 1 15 -6 8 -7 15 -9 15 -5 0 4 7 2 15 -5 9 -7 18 -10 22 -7 3 4 12 2 20 -4 7 -6 13 -8 13 -4 0 4 7 2 15 -5 17 -14 50 -6 40 10 -4 6 -14 10 -23 9 -10 -1 -20 0 -24 1 -5 1 -11 3 -15 4 -5 1 -14 5 -21 10 -7 4 -16 5 -19 2 -3 -3 -12 -1 -20 5 -7 6 -13 9 -13 6 0 -3 -27 9 -60 28 -33 18 -62 30 -65 25z"/>
 <path d="M3390 1294 c-19 -13 -38 -24 -42 -24 -3 0 -19 -5 -35 -12 -15 -6 -31 -12 -35 -12 -5 -1 -8 -4 -8 -8 0 -7 4 -10 13 -7 1 0 15 2 30 4 29 4 111 48 122 64 12 21 -12 18 -45 -5z"/>
 <path d="M1194 1294 c-4 -10 -9 -22 -11 -26 -2 -4 1 -9 6 -13 15 -9 35 35 22 48 -7 7 -12 5 -17 -9z"/>
 <path d="M2486 1291 c-4 -5 -2 -13 4 -16 6 -4 21 -28 33 -53 17 -36 21 -58 17 -95 -7 -52 3 -69 19 -38 14 25 14 78 1 86 -6 4 -8 11 -5 16 8 12 -21 73 -45 94 -11 10 -20 12 -24 6z"/>
 <path d="M334 1276 c-8 -21 3 -49 16 -41 5 3 10 15 10 25 0 25 -18 36 -26 16z"/>
 <path d="M1279 1286 c-1 -3 -2 -10 -3 -15 -4 -30 -70 -103 -108 -120 -54 -25 -81 -35 -90 -33 -12 2 -58 -67 -49 -73 5 -3 21 10 36 29 16 21 32 32 43 30 40 -9 168 91 175 137 2 8 6 19 10 26 4 6 3 14 -3 18 -5 3 -11 4 -11 1z"/>
 <path d="M1612 1277 c-16 -21 -53 -97 -46 -97 4 0 1 -6 -5 -14 -8 -9 -8 -16 -2 -20 5 -4 12 -2 16 4 3 5 4 10 1 10 -3 0 10 27 29 60 18 33 30 62 25 65 -4 2 -12 -1 -18 -8z"/>
 <path d="M584 1267 c-10 -28 37 -127 88 -182 27 -30 54 -52 60 -49 5 4 -8 25 -30 48 -45 47 -79 105 -88 153 -7 37 -21 52 -30 30z"/>
 <path d="M3490 1228 c-70 -51 -124 -74 -229 -99 -130 -30 -141 -51 -71 -139 29 -37 185 -128 197 -116 4 3 12 1 19 -4 6 -6 16 -10 20 -9 5 1 17 -1 27 -5 22 -10 50 0 41 15 -3 6 -17 9 -30 6 -14 -2 -27 0 -30 5 -3 5 -11 7 -18 5 -6 -2 -51 16 -101 42 -64 33 -94 55 -108 79 -25 42 -13 56 56 72 87 21 177 58 229 96 27 19 53 34 58 32 4 -2 23 -23 42 -48 37 -50 124 -114 144 -106 8 3 16 1 19 -4 8 -13 82 -13 90 0 4 6 10 8 15 5 18 -11 155 59 145 75 -3 5 -29 -4 -58 -19 -66 -35 -91 -42 -149 -43 -84 -1 -179 64 -214 147 -23 56 -33 57 -94 13z"/>
 <path d="M3645 1250 c-21 -34 100 -149 127 -122 7 7 0 15 -24 25 -36 15 -78 60 -78 83 0 17 -17 27 -25 14z"/>
 <path d="M4506 1233 c-24 -47 -109 -119 -187 -159 -41 -21 -79 -37 -86 -36 -16 3 -26 -15 -13 -23 6 -4 17 -1 25 5 8 7 15 10 15 6 0 -3 32 10 72 30 75 38 192 139 201 175 8 31 -11 32 -27 2z"/>
 <path d="M1166 1241 c-4 -5 -2 -12 3 -15 5 -4 12 -2 15 3 4 5 2 12 -3 15 -5 4 -12 2 -15 -3z"/>
 <path d="M2012 1237 c-15 -19 -43 -77 -37 -77 3 0 1 -9 -6 -21 -7 -14 -7 -25 -1 -31 12 -12 19 -2 26 36 3 15 14 43 25 62 19 32 14 57 -7 31z"/>
 <path d="M3195 1230 c-8 -13 20 -24 41 -16 20 8 9 26 -16 26 -10 0 -22 -5 -25 -10z"/>
 <path d="M1117 1213 c-15 -8 -25 -18 -22 -24 9 -13 20 -11 46 9 28 24 13 33 -24 15z"/>
 <path d="M3075 1220 c-3 -5 0 -13 8 -16 23 -8 92 0 92 11 0 14 -92 19 -100 5z"/>
 <path d="M3975 1213 c-34 -25 -119 -67 -132 -65 -16 3 -26 -15 -13 -23 6 -4 17 -1 25 5 8 7 15 10 15 6 0 -9 90 37 119 61 28 23 15 38 -14 16z"/>
 <path d="M345 1210 c-3 -5 -3 -15 1 -22 4 -7 9 -22 10 -34 5 -44 98 -209 113 -199 5 3 -11 40 -35 82 -24 43 -44 81 -44 85 0 4 -5 19 -12 35 -6 15 -10 33 -9 40 2 16 -16 26 -24 13z"/>
 <path d="M1015 1186 c-11 -9 -17 -16 -13 -16 20 -1 -33 -67 -65 -83 -20 -10 -34 -23 -31 -28 17 -27 117 49 112 86 -2 15 4 21 26 25 17 3 30 10 30 15 1 16 -38 17 -59 1z"/>
 <path d="M4544 1186 c-4 -10 -2 -22 4 -28 8 -8 13 -7 18 6 4 10 2 22 -4 28 -8 8 -13 7 -18 -6z"/>
 <path d="M706 1171 c-4 -5 -2 -12 3 -15 5 -4 12 -2 15 3 4 5 2 12 -3 15 -5 4 -12 2 -15 -3z"/>
 <path d="M765 1110 c-10 -17 82 -67 97 -52 5 5 -10 19 -42 34 -28 14 -53 22 -55 18z"/>
 <path d="M2299 1107 c-5 -25 -4 -34 3 -50 5 -10 13 -15 19 -12 5 4 5 15 -3 28 -6 12 -10 24 -9 25 2 2 0 6 -3 10 -3 3 -7 2 -7 -1z"/>
 <path d="M1545 1088 c-9 -24 -1 -103 10 -103 14 0 19 95 6 108 -7 7 -12 5 -16 -5z"/>
 <path d="M2326 1091 c-4 -5 9 -18 26 -29 41 -25 56 -30 56 -17 -1 15 -76 57 -82 46z"/>
 <path d="M2638 1095 c0 -6 -2 -14 -3 -20 -2 -12 -23 -64 -30 -76 -3 -4 -1 -10 4 -14 11 -6 46 53 37 63 -3 3 -1 11 6 19 8 10 8 17 0 25 -7 7 -13 8 -14 3z"/>
 <path d="M2492 1061 c-25 -7 -31 -24 -10 -29 17 -3 54 23 42 30 -5 3 -19 2 -32 -1z"/>
 <path d="M1964 1046 c-3 -9 -3 -24 1 -33 5 -10 9 -22 10 -28 1 -5 3 -12 4 -15 2 -3 4 -15 5 -28 2 -12 7 -27 13 -33 18 -18 23 5 8 34 -7 14 -11 28 -8 31 3 2 1 11 -3 18 -5 7 -7 23 -6 35 4 26 -16 41 -24 19z"/>
 <path d="M1886 1043 c-10 -10 -7 -61 4 -68 6 -4 8 -11 5 -16 -4 -5 -3 -15 2 -21 4 -7 9 -21 10 -31 4 -26 34 -68 44 -61 5 3 -1 24 -13 47 -12 23 -23 47 -23 52 -1 6 -3 15 -4 20 -2 6 -2 24 -1 41 1 31 -11 50 -24 37z"/>
 <path d="M745 1030 c-9 -14 75 -54 88 -41 7 7 2 13 -17 21 -15 5 -36 15 -46 20 -12 6 -21 7 -25 0z"/>
 <path d="M966 1016 c-22 -11 -54 -20 -70 -20 -17 -1 -32 -5 -34 -11 -4 -13 34 -19 56 -9 9 4 21 6 25 5 10 -2 64 27 72 38 11 18 -10 17 -49 -3z"/>
 <path d="M2326 1032 c-6 -10 65 -82 85 -85 8 -2 20 -6 27 -10 6 -5 17 -5 22 -2 15 9 1 27 -15 21 -8 -3 -36 15 -64 40 -27 24 -52 41 -55 36z"/>
 <path d="M3984 1018 c-13 -11 -21 -24 -18 -29 4 -6 13 -4 24 6 19 17 82 23 111 11 24 -10 90 -3 87 9 -2 6 -24 10 -49 11 -25 1 -50 4 -56 7 -19 12 -75 3 -99 -15z"/>
 <path d="M3842 934 c-56 -29 -105 -53 -107 -53 -7 -1 -6 -11 0 -11 3 0 6 0 8 1 1 0 12 2 25 5 25 4 146 64 176 87 10 8 15 16 10 19 -5 2 -55 -19 -112 -48z"/>
 <path d="M2979 953 c-33 -84 -56 -130 -77 -154 -12 -15 -19 -30 -14 -33 13 -8 45 30 75 87 17 32 27 43 30 33 4 -9 1 -18 -4 -22 -6 -3 -9 -15 -6 -25 3 -10 1 -22 -5 -25 -5 -3 -7 -12 -4 -20 3 -7 1 -16 -5 -20 -6 -3 -8 -12 -5 -19 2 -7 2 -16 -2 -20 -4 -4 -7 -10 -8 -13 -1 -21 -69 -153 -94 -184 -37 -45 -22 -61 15 -17 29 35 83 138 88 166 1 10 6 24 10 31 5 6 5 12 1 12 -3 0 -1 7 6 15 6 8 9 19 6 24 -4 5 -1 13 5 16 5 4 8 13 5 21 -3 7 -1 16 5 20 5 3 9 13 8 22 -1 10 1 24 5 33 11 25 3 92 -11 97 -7 2 -18 -9 -24 -25z"/>
 <path d="M2541 959 c-16 -6 -21 -13 -14 -20 13 -13 67 7 58 21 -7 12 -12 12 -44 -1z"/>
 <path d="M1545 947 c-9 -22 -2 -62 10 -60 6 1 11 14 13 29 4 32 -14 56 -23 31z"/>
 <path d="M486 932 c-3 -5 8 -21 23 -36 16 -15 31 -23 35 -18 3 5 -8 21 -23 36 -16 15 -31 23 -35 18z"/>
 <path d="M2016 891 c-4 -5 -2 -12 3 -15 5 -4 12 -2 15 3 4 5 2 12 -3 15 -5 4 -12 2 -15 -3z"/>
 <path d="M555 871 c-10 -17 138 -111 153 -97 3 3 11 1 18 -5 7 -6 18 -8 24 -4 13 8 3 26 -13 23 -17 -3 -105 38 -143 67 -18 14 -35 21 -39 16z"/>
 <path d="M1176 872 c-4 -4 -12 -8 -17 -8 -5 -1 -10 -2 -11 -3 -2 -2 -13 -4 -25 -7 -12 -2 -48 -16 -80 -30 -32 -15 -63 -26 -70 -25 -16 2 -26 -16 -13 -24 6 -4 17 -1 25 5 8 7 15 10 15 7 0 -6 34 7 110 41 19 8 38 16 43 17 4 2 9 4 12 5 13 7 31 5 42 -3 7 -5 19 -7 28 -4 8 4 17 2 21 -4 3 -6 16 -9 27 -8 12 1 30 -1 39 -5 9 -4 22 -5 28 -1 16 10 0 27 -21 22 -10 -3 -22 -1 -25 5 -3 5 -16 8 -27 7 -12 -1 -30 2 -40 6 -10 4 -21 5 -24 1 -3 -3 -11 -1 -18 4 -7 5 -15 6 -19 2z"/>
 <path d="M3675 871 c-7 -12 12 -24 25 -16 11 7 4 25 -10 25 -5 0 -11 -4 -15 -9z"/>
 <path d="M1555 860 c-4 -6 -1 -17 5 -25 7 -8 9 -15 5 -15 -4 0 0 -11 9 -25 9 -14 14 -25 11 -25 -3 0 4 -18 15 -40 12 -23 25 -38 30 -35 6 4 1 24 -12 48 -11 23 -20 42 -18 42 2 0 -3 11 -10 25 -8 14 -13 30 -12 37 3 16 -15 26 -23 13z"/>
 <path d="M2037 862 c-4 -5 9 -23 27 -41 19 -18 36 -29 39 -23 4 5 -9 23 -27 41 -19 18 -36 29 -39 23z"/>
 <path d="M3555 860 c-3 -5 0 -13 8 -16 23 -8 92 0 92 11 0 14 -92 19 -100 5z"/>
 <path d="M1956 832 c-15 -24 195 -178 231 -170 13 2 47 -14 69 -34 12 -11 24 -15 28 -10 7 12 -39 55 -62 57 -40 3 -156 67 -206 115 -30 28 -57 47 -60 42z"/>
 <path d="M2116 792 c-9 -16 68 -71 81 -58 4 3 12 1 19 -5 7 -6 18 -8 24 -4 13 8 3 26 -13 24 -17 -3 -69 19 -88 37 -10 9 -20 11 -23 6z"/>
 <path d="M885 780 c-8 -13 20 -24 41 -16 20 8 9 26 -16 26 -10 0 -22 -5 -25 -10z"/>
 <path d="M775 771 c-7 -13 17 -24 40 -19 9 1 16 8 16 13 0 14 -48 19 -56 6z"/>
 <path d="M2356 751 c-4 -6 -13 -8 -20 -5 -17 7 -30 -12 -16 -21 6 -4 17 -2 25 5 18 15 31 -6 15 -25 -17 -20 5 -27 23 -7 9 10 15 26 13 37 -3 22 -30 32 -40 16z"/>
 <path d="M2851 736 c-13 -13 -18 -26 -13 -30 5 -3 19 5 31 18 13 13 18 26 13 30 -5 3 -19 -5 -31 -18z"/>
 <path d="M2770 681 c-47 -29 -107 -106 -90 -116 5 -3 21 12 36 34 14 22 46 52 70 66 25 14 42 30 39 36 -8 11 -3 13 -55 -20z"/>
 <path d="M1636 682 c-7 -12 43 -84 54 -77 5 3 -2 24 -17 45 -28 43 -29 44 -37 32z"/>
 <path d="M2328 683 c-7 -14 -3 -33 6 -33 12 -1 17 28 6 35 -5 3 -10 2 -12 -2z"/>
 <path d="M2610 621 c-34 -36 -52 -47 -75 -46 -16 0 -32 -4 -34 -10 -6 -13 25 -19 47 -9 9 4 23 8 30 10 18 3 49 32 73 66 32 45 7 38 -41 -11z"/>
 <path d="M2365 621 c-12 -20 91 -69 108 -52 7 7 1 13 -19 20 -16 6 -41 17 -56 25 -15 8 -30 11 -33 7z"/>
 <path d="M1697 593 c-3 -5 18 -33 47 -62 30 -29 56 -49 59 -44 3 5 -18 33 -47 62 -30 29 -56 49 -59 44z"/>
 <path d="M2296 591 c-4 -5 -2 -12 3 -15 5 -4 12 -2 15 3 4 5 2 12 -3 15 -5 4 -12 2 -15 -3z"/>
 <path d="M2335 559 c-6 -9 52 -49 73 -49 22 0 27 -2 39 -12 7 -5 17 -7 23 -3 13 8 2 27 -13 22 -6 -2 -35 9 -64 24 -29 15 -55 23 -58 18z"/>
 <path d="M2605 523 c-16 -9 -46 -17 -65 -17 -19 -1 -36 -5 -38 -11 -3 -12 43 -19 66 -10 10 3 18 6 20 5 10 -3 61 33 57 40 -7 12 -4 13 -40 -7z"/>
 <path d="M1814 479 c-9 -15 111 -77 124 -65 3 3 11 1 18 -5 16 -13 48 -4 39 11 -4 6 -14 10 -23 9 -22 -2 -55 9 -108 36 -25 12 -47 19 -50 14z"/>
 <path d="M2796 461 c-15 -16 -23 -31 -18 -35 5 -3 21 8 36 23 15 16 23 31 18 35 -5 3 -21 -8 -36 -23z"/>
 <path d="M2135 420 c-7 -12 20 -24 34 -16 6 4 33 -5 61 -19 27 -14 50 -22 50 -19 0 4 7 1 15 -6 8 -7 15 -9 15 -5 0 4 7 2 15 -5 9 -7 18 -10 22 -7 3 4 12 2 20 -5 7 -6 16 -8 20 -5 3 4 12 2 19 -4 7 -6 18 -8 24 -4 14 9 1 28 -16 21 -7 -3 -16 -1 -20 5 -3 6 -12 8 -20 5 -7 -3 -16 -1 -20 5 -3 6 -12 8 -19 5 -7 -2 -16 -2 -20 2 -4 4 -10 7 -13 7 -4 1 -27 11 -51 24 -49 26 -107 36 -116 21z"/>
 <path d="M2717 401 c-20 -14 -51 -27 -69 -28 -17 -1 -36 -7 -41 -12 -5 -5 -15 -7 -22 -5 -7 3 -16 1 -19 -5 -9 -14 14 -25 26 -13 6 6 16 8 22 6 7 -3 23 -1 37 4 13 5 27 10 32 11 15 2 64 30 76 44 21 26 -3 25 -42 -2z"/>
 <path d="M2035 410 c-3 -5 0 -13 9 -16 21 -8 61 -1 61 11 0 14 -62 19 -70 5z"/>
 <path d="M2495 340 c-8 -13 20 -24 41 -16 20 8 9 26 -16 26 -10 0 -22 -5 -25 -10z"/>
 </g>
<g id="layer4" fill="#afc1cc" stroke="none">
 <path d="M1820 2833 c-146 -24 -399 -159 -497 -265 -50 -56 -65 -82 -92 -175 -12 -39 -30 -82 -40 -95 -19 -22 -24 -23 -143 -20 -210 5 -348 -27 -473 -108 -91 -59 -184 -161 -228 -251 -58 -117 -164 -378 -181 -445 -20 -78 -20 -229 -1 -312 48 -203 190 -399 365 -502 108 -64 178 -83 310 -84 101 -1 131 3 246 34 129 34 134 34 214 22 106 -15 170 -50 222 -120 141 -191 297 -279 538 -301 58 -6 159 -24 225 -42 107 -27 131 -30 220 -26 191 10 334 75 465 214 64 67 87 102 130 190 28 59 59 124 68 143 22 45 50 49 139 17 198 -72 419 -61 613 30 110 51 142 61 254 79 153 24 239 61 358 151 106 81 165 168 208 310 28 93 35 99 102 82 79 -19 177 -15 234 10 51 23 104 21 125 -5 6 -8 26 -14 44 -14 25 0 34 -5 39 -22 6 -23 7 -23 21 -4 8 11 15 27 15 35 0 24 76 82 115 88 41 7 56 22 27 29 -17 5 -20 19 -28 142 -9 133 -23 174 -34 98 l-5 -35 -37 56 c-21 31 -38 67 -38 79 0 36 -19 39 -31 4 l-11 -31 -39 42 c-22 23 -39 52 -39 64 0 29 -30 55 -64 55 -16 0 -52 18 -89 44 -34 24 -100 64 -147 89 -183 99 -310 137 -530 161 -219 24 -349 76 -540 213 -122 87 -171 113 -260 141 -101 31 -181 36 -292 18 -128 -21 -169 -20 -275 5 -129 31 -249 24 -364 -20 -114 -44 -129 -41 -249 56 -108 87 -223 146 -325 168 -65 14 -187 18 -245 8z m312 -96 c87 -31 158 -75 244 -148 38 -32 88 -66 111 -75 48 -18 62 -16 193 32 94 35 204 36 330 5 102 -25 138 -26 255 -5 202 36 336 -2 551 -154 113 -80 278 -164 369 -187 33 -9 121 -22 195 -31 74 -8 164 -22 200 -31 127 -31 285 -103 420 -192 30 -20 60 -36 65 -36 16 0 104 -69 105 -82 0 -16 101 -128 115 -128 17 0 65 -108 65 -148 0 -60 -23 -94 -73 -108 -23 -6 -47 -15 -53 -20 -7 -6 -16 -4 -24 6 -8 9 -25 15 -40 13 -15 -1 -35 4 -44 11 -12 10 -32 12 -79 6 -34 -4 -104 -7 -155 -7 -89 1 -93 0 -104 -24 -8 -17 -14 -21 -24 -14 -9 8 -17 3 -31 -17 -25 -36 -31 -51 -57 -148 -14 -55 -26 -80 -36 -80 -9 0 -14 -7 -12 -18 5 -29 -133 -157 -213 -198 -89 -46 -116 -55 -250 -77 -84 -15 -137 -31 -225 -70 -161 -71 -226 -85 -380 -80 -112 4 -136 9 -230 41 -58 21 -117 37 -131 37 -39 0 -66 -37 -108 -148 -50 -133 -92 -201 -171 -281 -156 -157 -380 -207 -634 -141 -63 17 -162 35 -218 40 -236 24 -298 60 -523 302 -65 71 -75 78 -145 99 -105 32 -207 31 -320 -5 -112 -36 -256 -45 -354 -22 -220 52 -412 249 -475 487 -53 203 -42 268 112 635 66 157 93 203 165 272 122 117 289 168 517 159 181 -7 218 12 251 132 28 102 46 144 83 184 73 81 267 193 395 228 102 28 274 21 368 -14z m2903 -1347 c-11 -5 -49 -8 -85 -8 -62 1 -63 1 -20 8 68 11 130 11 105 0z"/>
 <path d="M1773 2630 c-29 -10 -84 -35 -123 -56 -127 -66 -234 -208 -261 -346 -10 -49 -9 -61 7 -95 15 -31 30 -42 74 -60 67 -27 68 -26 110 84 41 107 66 143 120 171 50 25 89 28 155 10 42 -11 46 -11 72 13 52 48 92 69 158 86 56 14 78 14 147 4 50 -7 86 -7 91 -2 12 12 -72 102 -131 140 -110 69 -302 93 -419 51z m315 -34 c39 -13 85 -34 104 -46 40 -28 88 -71 88 -80 0 -4 -26 -3 -57 3 -101 17 -203 -11 -282 -80 l-42 -35 -64 13 c-122 24 -200 -26 -267 -168 l-38 -83 -52 20 c-29 11 -55 20 -57 20 -2 0 -1 26 1 59 5 73 51 170 113 239 45 50 141 108 239 143 78 28 224 26 314 -5z"/>
 <path d="M2746 2445 c-81 -29 -170 -152 -165 -228 1 -18 -2 -40 -6 -49 -4 -10 -4 -26 0 -35 5 -10 7 -27 6 -38 -1 -11 5 -40 14 -64 21 -60 19 -73 -17 -131 -22 -35 -32 -64 -32 -93 -1 -59 18 -60 26 -2 4 26 21 70 37 97 17 27 31 57 31 65 0 14 -20 89 -37 143 -9 25 -9 72 -1 77 5 2 8 19 8 36 0 40 39 125 71 154 81 74 225 67 389 -19 l58 -30 77 38 c66 32 90 38 161 42 106 6 200 -22 284 -84 89 -65 126 -133 137 -251 3 -35 9 -65 13 -68 10 -6 -19 -185 -36 -221 -9 -18 -13 -37 -10 -43 3 -5 -7 -22 -22 -38 -16 -15 -34 -37 -41 -48 -10 -17 -11 -15 -8 20 2 22 0 66 -5 99 -7 47 -17 69 -53 112 -70 87 -131 130 -225 160 -32 10 -72 33 -96 55 -59 53 -99 71 -169 77 -96 7 -166 -18 -231 -82 -31 -32 -56 -67 -61 -87 -7 -27 -20 -40 -58 -60 -47 -25 -50 -30 -64 -84 -18 -76 0 -208 33 -240 12 -11 39 -41 61 -66 30 -35 50 -48 80 -53 24 -5 53 -20 73 -39 35 -34 101 -56 170 -57 71 0 182 69 188 118 1 9 6 34 9 54 11 55 -2 104 -37 144 -52 59 -105 78 -143 50 -18 -13 -18 -15 13 -50 27 -30 32 -45 32 -85 0 -61 -28 -101 -70 -101 -27 0 -60 22 -60 40 0 18 -65 40 -117 40 -51 0 -55 2 -69 33 -9 17 -24 48 -35 67 -28 52 -24 130 7 130 7 0 17 6 21 14 4 7 22 20 39 29 49 25 60 44 39 67 -16 18 -17 21 -1 45 31 47 123 75 200 61 38 -7 99 -53 118 -89 6 -12 12 -43 12 -69 1 -30 8 -55 19 -65 16 -16 20 -16 66 1 48 17 50 17 93 -4 57 -27 86 -54 105 -98 11 -26 17 -32 26 -23 9 9 7 20 -7 46 -25 45 -51 68 -112 99 -60 30 -85 32 -120 10 -13 -9 -27 -15 -29 -12 -3 3 -7 25 -9 49 -2 24 -4 48 -5 52 -1 5 -24 33 -52 63 -68 71 -130 89 -224 63 -48 -14 -130 -91 -121 -114 3 -8 9 -21 12 -29 4 -10 -5 -20 -25 -31 -17 -8 -47 -29 -66 -46 -30 -27 -35 -37 -35 -75 0 -56 20 -105 66 -161 34 -42 37 -43 94 -43 42 0 61 -4 67 -15 15 -25 76 -65 101 -65 15 0 40 15 64 40 39 39 40 42 36 95 -4 44 -11 62 -33 85 l-29 30 28 0 c35 0 82 -33 101 -70 18 -34 20 -112 4 -143 -17 -32 -60 -77 -91 -93 -59 -31 -198 -3 -247 50 -13 13 -39 27 -59 31 -46 8 -74 34 -120 110 -35 57 -37 65 -37 147 0 97 8 112 76 146 24 12 38 28 47 56 18 56 47 92 100 123 42 25 57 28 137 28 100 0 127 -10 196 -72 22 -20 67 -46 103 -58 111 -39 189 -105 229 -194 16 -37 19 -59 15 -133 -3 -53 -2 -91 4 -94 14 -9 111 90 113 114 1 11 6 26 12 34 28 35 65 221 49 247 -4 6 -9 42 -11 80 -5 100 -42 178 -118 246 -100 91 -204 130 -332 123 -73 -4 -95 -9 -160 -43 l-75 -38 -59 31 c-125 65 -243 86 -325 57z"/>
 <path d="M2095 2391 c-40 -10 -72 -27 -120 -66 -65 -53 -80 -58 -114 -40 -81 42 -171 -6 -211 -112 -23 -61 -26 -126 -7 -141 6 -5 52 -31 101 -56 97 -50 109 -49 120 6 26 130 170 177 321 104 38 -19 85 -55 129 -99 64 -65 70 -69 99 -60 41 11 45 32 48 211 2 145 2 145 -24 168 -44 37 -218 95 -282 93 -16 -1 -43 -4 -60 -8z m155 -36 c30 -8 75 -24 100 -35 l46 -21 -4 -157 c-2 -86 -8 -161 -13 -166 -5 -5 -35 16 -73 51 -114 108 -240 147 -341 109 -44 -17 -97 -68 -117 -111 l-10 -22 -75 38 c-41 22 -81 39 -90 39 -21 0 -12 54 18 116 26 56 66 78 123 70 22 -3 55 -8 73 -10 26 -3 43 4 93 41 99 74 161 87 270 58z"/>
 <path d="M3945 2130 c-9 -14 6 -129 17 -136 5 -4 49 -9 97 -13 110 -9 172 -37 207 -93 14 -21 30 -41 37 -43 148 -51 221 -98 284 -184 25 -33 53 -63 62 -66 10 -3 64 4 120 15 120 23 254 26 330 5 101 -26 96 -1 -20 109 -186 177 -521 336 -683 324 -64 -5 -44 -22 34 -29 120 -12 261 -63 390 -144 30 -19 70 -41 89 -50 49 -22 121 -83 132 -112 5 -13 13 -22 17 -19 5 3 21 -7 36 -23 l27 -28 -25 4 c-15 3 -29 9 -32 14 -12 20 -207 4 -324 -27 -82 -21 -73 -25 -154 74 -45 55 -113 101 -199 135 -50 20 -82 42 -121 81 -55 56 -105 79 -207 91 -44 6 -46 7 -47 40 -2 40 -2 40 43 21 51 -22 249 -60 269 -53 23 9 11 27 -18 27 -41 0 -210 41 -273 65 -68 28 -79 29 -88 15z"/>
 <path d="M855 2080 c-117 -17 -192 -57 -277 -147 -60 -65 -86 -117 -104 -210 -8 -41 -14 -76 -14 -78 0 -2 -16 -22 -35 -45 -80 -96 -111 -300 -66 -440 50 -156 167 -297 301 -363 61 -30 71 -32 170 -31 111 0 125 3 263 57 l87 34 105 -20 c151 -28 147 -31 146 148 -1 97 3 158 14 198 36 138 114 232 254 307 46 25 86 53 89 62 2 10 8 16 12 13 9 -6 80 70 80 86 0 37 -150 198 -215 231 -52 27 -159 48 -239 48 -106 0 -183 -21 -378 -104 -35 -15 -37 -15 -31 1 3 10 17 30 30 45 l25 26 -22 12 c-16 8 -34 9 -71 1 -105 -23 -172 -78 -225 -187 -27 -55 -29 -66 -27 -171 2 -111 2 -111 -23 -117 -31 -8 -44 -41 -44 -110 0 -111 57 -204 155 -252 42 -20 63 -25 90 -20 43 8 92 48 109 91 12 28 19 33 61 37 95 11 162 102 137 187 -22 71 -88 131 -145 131 -13 0 -41 -13 -62 -30 -21 -16 -41 -30 -46 -30 -5 0 -24 -14 -44 -31 -40 -36 -47 -22 -19 38 21 43 66 77 127 93 98 26 175 -9 230 -106 24 -42 27 -58 25 -115 -4 -85 -37 -138 -108 -174 -27 -14 -57 -25 -66 -25 -10 0 -40 -24 -68 -54 -79 -84 -162 -96 -270 -38 -102 55 -166 166 -166 287 0 74 11 110 46 146 24 25 26 35 27 126 2 93 4 104 39 175 71 143 164 208 299 208 42 0 95 -6 117 -14 35 -13 47 -12 93 1 30 8 61 22 69 30 13 13 12 17 -15 39 -16 13 -50 31 -75 39 -54 19 -258 28 -345 15z m349 -47 c26 -10 47 -22 47 -28 -1 -5 -19 -16 -39 -23 -32 -12 -44 -11 -85 4 -68 23 -196 16 -256 -15 -70 -36 -143 -116 -187 -205 -37 -75 -39 -85 -40 -178 -2 -94 -3 -99 -32 -133 -36 -41 -46 -84 -40 -169 7 -83 48 -163 115 -227 67 -63 131 -92 203 -92 67 0 103 17 158 77 23 25 48 46 55 46 30 0 115 50 146 85 66 76 79 161 37 250 -24 53 -99 129 -142 145 -91 35 -240 -33 -280 -127 -18 -41 -18 -84 0 -108 13 -17 15 -16 40 22 15 22 39 46 54 54 15 7 40 24 55 36 53 43 126 20 158 -50 22 -51 24 -88 4 -126 -16 -32 -69 -61 -112 -61 -36 0 -73 -25 -73 -49 0 -31 -39 -70 -76 -77 -45 -8 -114 18 -155 59 -47 46 -69 107 -69 188 0 63 2 70 23 78 44 17 50 34 42 121 -9 101 5 161 56 241 32 49 49 65 92 84 28 12 70 26 92 30 l40 7 -22 -24 c-29 -31 -40 -76 -20 -84 8 -3 51 10 94 29 163 71 207 82 338 82 137 0 222 -20 257 -60 12 -14 27 -25 33 -25 14 0 79 -67 95 -98 10 -20 9 -27 -6 -43 -16 -18 -18 -18 -36 -3 -20 18 -20 18 -22 -40 -1 -39 -3 -41 -78 -81 -43 -23 -95 -56 -117 -73 -56 -45 -126 -146 -158 -228 -25 -64 -27 -80 -27 -227 l-1 -159 -60 7 c-139 17 -141 16 -248 -27 -99 -40 -105 -41 -222 -42 -119 -1 -121 -1 -184 34 -93 50 -168 129 -219 230 -58 115 -79 218 -63 312 16 98 45 173 86 226 19 25 37 61 40 81 21 130 55 201 128 267 101 91 193 115 407 109 90 -2 139 -9 174 -22z"/>
 <path d="M1984 2051 c-37 -22 -64 -58 -64 -83 0 -21 34 -77 77 -127 18 -21 30 -41 27 -44 -3 -3 4 -11 16 -17 28 -15 96 -4 113 18 8 12 29 18 67 19 66 3 96 27 86 67 -9 37 -103 128 -159 154 -70 33 -125 37 -163 13z m126 -26 c57 -20 123 -70 125 -95 2 -22 -15 -26 -32 -9 -8 8 -17 1 -32 -29 -17 -34 -27 -41 -59 -47 -40 -6 -112 15 -112 33 0 5 -12 26 -26 47 -30 45 -26 78 14 99 35 19 69 20 122 1z"/>
 <path d="M3984 1901 c-28 -17 -32 -26 -38 -80 -4 -34 -4 -66 -1 -71 3 -6 29 -10 57 -10 28 0 78 -10 110 -22 93 -33 140 -102 149 -218 3 -32 -25 -98 -56 -130 -13 -14 -31 -42 -40 -63 -23 -55 -80 -114 -164 -169 -170 -111 -301 -99 -401 37 -22 30 -45 55 -50 55 -6 0 -32 -16 -59 -35 -50 -36 -141 -74 -226 -94 -27 -7 -61 -20 -74 -30 -23 -17 -23 -21 -11 -50 25 -61 141 -132 259 -157 77 -16 207 -18 271 -3 58 13 218 90 261 126 32 27 36 28 153 28 l121 0 80 42 c113 60 188 138 220 229 26 72 32 138 15 149 -6 3 -13 -2 -16 -12 -3 -10 -10 -26 -15 -35 -5 -10 -9 -35 -9 -55 0 -70 -18 -108 -75 -162 -32 -30 -88 -68 -137 -92 l-83 -41 -105 5 -105 5 -71 -47 c-39 -27 -107 -63 -150 -81 -68 -29 -93 -34 -184 -38 -125 -5 -213 13 -302 60 -64 34 -86 59 -65 76 6 5 50 21 97 35 47 15 115 44 152 67 37 22 71 40 75 40 5 0 25 -16 44 -36 107 -112 229 -120 375 -26 33 22 65 41 70 43 24 10 123 130 134 163 6 20 16 36 21 36 13 0 63 80 65 104 1 11 4 28 7 36 9 23 11 44 4 60 -3 8 -8 26 -11 40 -9 39 -90 155 -109 155 -7 0 -29 6 -49 13 -26 9 -38 20 -38 33 0 15 4 17 18 10 35 -18 82 -29 87 -21 6 9 103 -12 156 -34 20 -8 39 -22 42 -31 4 -8 15 -15 26 -15 11 0 33 -13 49 -30 17 -16 35 -30 40 -30 12 0 22 -24 22 -55 0 -13 5 -27 10 -30 7 -4 7 -12 0 -24 -7 -14 -5 -23 9 -35 24 -22 31 -11 30 43 0 35 -8 56 -32 90 -59 81 -208 167 -301 175 -60 5 -116 17 -121 26 -3 4 11 17 31 29 40 24 37 36 -12 57 -47 20 -113 17 -150 -5z m66 -71 c0 -55 -2 -60 -21 -60 -20 0 -21 4 -16 50 7 54 13 70 28 70 5 0 9 -27 9 -60z m79 47 c-2 -1 -14 -11 -26 -21 -23 -19 -23 -19 -23 2 0 17 6 22 27 22 14 0 24 -1 22 -3z"/>
 <path d="M2544 1706 c-22 -59 75 -246 179 -346 66 -64 141 -103 247 -131 151 -39 337 -14 442 60 112 77 152 149 177 319 11 70 8 98 -8 88 -10 -7 -35 -116 -32 -139 4 -28 -39 -148 -56 -154 -8 -3 -19 -16 -23 -29 -12 -30 -101 -89 -165 -109 -27 -9 -97 -19 -155 -22 -90 -5 -117 -2 -185 17 -44 12 -102 34 -130 47 -53 27 -169 138 -160 153 3 5 -3 13 -13 19 -23 12 -82 139 -89 192 -6 43 -20 59 -29 35z"/>
 <path d="M2245 1684 c-174 -44 -271 -108 -322 -212 -33 -66 -39 -71 -96 -77 -112 -11 -194 -74 -249 -190 -24 -52 -28 -74 -26 -122 4 -80 22 -73 29 12 6 82 53 182 103 220 35 26 135 58 157 50 27 -10 74 31 103 91 15 32 38 70 50 83 27 29 158 92 208 99 21 2 41 9 44 13 8 14 68 11 88 -4 15 -11 19 -32 23 -104 l6 -90 -89 -7 c-49 -4 -96 -8 -104 -10 -27 -5 -87 -35 -116 -58 -16 -13 -38 -28 -49 -34 -10 -6 -31 -34 -46 -63 -15 -29 -34 -60 -41 -69 -18 -22 -40 -113 -37 -149 2 -15 0 -34 -4 -41 -5 -6 -5 -17 -1 -23 4 -7 8 -26 9 -43 7 -109 156 -256 310 -306 25 -8 61 -35 95 -70 42 -42 72 -62 119 -80 132 -49 235 -22 304 80 21 30 57 65 93 88 54 35 121 104 151 156 42 71 -17 -124 -66 -222 -37 -73 -136 -176 -193 -202 -24 -11 -87 -27 -139 -36 -89 -16 -100 -16 -169 0 -41 9 -100 28 -130 43 -50 23 -67 26 -185 27 -117 2 -136 5 -187 28 -31 15 -78 46 -103 69 -93 86 -187 246 -201 341 -3 24 -8 50 -11 58 -3 8 -5 25 -4 37 1 11 -3 24 -8 28 -14 8 -25 -20 -16 -42 4 -10 8 -40 9 -68 8 -146 198 -399 343 -456 49 -19 78 -23 183 -24 107 -1 131 -4 166 -23 68 -35 200 -64 258 -57 94 12 197 43 238 71 66 46 146 144 188 229 59 120 99 312 70 330 -6 3 -15 -6 -21 -22 -39 -107 -104 -192 -182 -240 -29 -18 -72 -58 -97 -90 -61 -77 -116 -106 -187 -99 -91 10 -153 40 -217 105 -37 37 -72 63 -90 67 -46 10 -140 60 -181 95 -47 41 -89 104 -104 154 -7 22 -15 47 -18 55 -9 22 -9 43 -2 55 3 6 9 34 12 64 4 30 19 77 33 105 15 28 33 61 39 73 14 27 76 78 125 103 73 37 225 51 324 30 81 -17 84 -2 25 114 -23 44 -45 91 -48 103 -3 12 -10 22 -14 22 -5 0 -14 7 -20 16 -12 16 -95 28 -132 19z m169 -219 c3 -8 1 -15 -4 -15 -6 0 -10 7 -10 15 0 8 2 15 4 15 2 0 6 -7 10 -15z"/>
 <path d="M3960 1653 c-23 -8 -90 -75 -106 -105 -18 -35 -8 -83 24 -108 30 -24 38 -24 76 -5 35 18 36 18 36 1 0 -19 -52 -56 -79 -56 -22 0 -77 26 -117 55 -20 15 -24 13 -70 -29 -64 -57 -92 -128 -71 -178 19 -44 78 -95 120 -103 103 -20 267 91 366 246 18 29 35 64 36 78 1 14 6 34 10 44 4 9 4 25 0 35 -4 9 -8 27 -9 39 -2 26 -31 60 -66 78 -26 12 -124 18 -150 8z m159 -43 c33 -17 53 -98 36 -145 -16 -46 -53 -106 -88 -145 -8 -8 -17 -23 -20 -32 -13 -36 -152 -121 -219 -133 -72 -14 -148 35 -148 94 1 32 11 46 73 99 l47 41 43 -19 c55 -25 102 -25 143 1 33 20 35 23 38 96 1 20 -54 26 -61 6 -7 -17 -69 -17 -76 1 -3 7 3 28 14 46 15 24 23 29 33 21 19 -16 26 -2 20 40 -5 31 -3 38 12 42 27 8 131 -1 153 -13z"/>
 <path d="M2210 1356 c-173 -49 -267 -180 -240 -335 16 -95 43 -143 118 -211 90 -83 185 -109 275 -74 29 11 19 -18 -15 -47 l-33 -27 37 -35 c66 -62 184 -86 240 -49 16 10 43 39 61 65 23 32 51 56 87 74 76 38 173 132 200 195 28 66 30 140 3 176 -13 17 -48 37 -93 55 -40 15 -104 48 -142 74 -38 25 -73 42 -78 37 -4 -5 -3 -36 3 -69 18 -106 -12 -204 -69 -225 -40 -16 -116 -12 -154 8 -38 19 -109 104 -91 110 5 2 31 -9 56 -23 39 -23 52 -26 92 -20 64 9 93 41 93 100 0 82 -59 179 -129 214 -44 21 -158 25 -221 7z m156 -27 c4 -7 9 -8 17 0 23 23 93 -35 99 -84 2 -21 8 -29 19 -27 19 3 29 -25 29 -84 0 -49 -14 -64 -69 -71 -31 -4 -50 1 -93 24 -64 36 -82 36 -86 2 -4 -35 93 -143 145 -160 50 -16 134 -7 171 19 36 26 72 112 72 172 l0 39 73 -38 c39 -22 98 -47 130 -57 l57 -18 0 -45 c0 -97 -78 -199 -197 -257 -29 -15 -64 -40 -76 -56 -59 -80 -83 -98 -129 -98 -55 0 -130 25 -154 51 -17 19 -16 20 8 47 55 59 39 92 -36 73 -61 -15 -94 -14 -151 5 -66 23 -157 115 -178 180 -24 75 -31 157 -16 185 7 13 13 32 14 41 2 26 48 87 70 94 11 4 31 15 46 26 51 38 218 64 235 37z"/>
 <path d="M5346 1831 c-4 -5 -2 -12 3 -15 5 -4 12 -2 15 3 4 5 2 12 -3 15 -5 4 -12 2 -15 -3z"/>
 <path d="M5386 1791 c-4 -5 -2 -12 3 -15 5 -4 12 -2 15 3 4 5 2 12 -3 15 -5 4 -12 2 -15 -3z"/>
 <path d="M5405 1378 c-9 -23 -2 -83 10 -83 14 0 19 75 6 88 -7 7 -12 5 -16 -5z"/>
 </g>
<g id="layer5" fill="#68889f" stroke="none">
 <path d="M1770 2744 c-145 -38 -375 -183 -423 -266 -14 -24 -35 -77 -47 -118 -32 -113 -49 -148 -79 -158 -14 -5 -96 -7 -181 -5 -239 7 -374 -32 -501 -146 -77 -68 -121 -137 -173 -266 -24 -61 -60 -147 -80 -193 -90 -207 -83 -395 21 -593 86 -166 260 -306 420 -339 87 -18 240 -7 348 25 99 30 186 34 282 15 89 -18 148 -55 213 -135 160 -195 260 -253 476 -275 60 -6 161 -24 224 -40 141 -37 258 -40 374 -10 104 26 168 63 247 140 83 81 139 167 174 267 15 43 38 102 51 131 20 46 26 52 53 52 17 0 68 -15 113 -34 108 -44 181 -58 303 -59 122 0 191 16 344 84 94 42 136 55 235 70 163 26 251 68 374 182 65 59 87 85 80 94 -13 16 -1 34 20 31 13 -2 19 8 26 47 16 95 37 157 62 182 19 19 28 22 39 13 11 -9 16 -7 24 8 10 18 15 19 47 9 26 -8 40 -8 53 0 22 14 90 18 114 8 11 -4 23 -3 30 4 6 6 28 11 49 11 27 0 40 -5 48 -21 9 -16 14 -18 26 -8 11 9 19 8 38 -5 15 -10 27 -12 31 -6 3 6 21 10 39 10 50 0 61 21 61 114 -1 77 -16 133 -34 121 -5 -2 -28 18 -52 45 -67 77 -165 170 -197 189 -16 9 -78 44 -138 78 -192 109 -301 145 -514 169 -74 8 -164 22 -200 30 -83 21 -227 86 -305 138 -33 22 -101 67 -151 101 -159 106 -289 133 -493 100 -103 -16 -113 -16 -187 0 -173 37 -220 40 -297 23 -40 -8 -106 -28 -148 -44 -68 -25 -80 -27 -115 -16 -23 7 -77 43 -130 87 -95 80 -195 136 -284 160 -70 19 -238 18 -310 -1z m334 -138 c78 -30 151 -80 190 -131 l27 -35 -33 8 c-18 4 -76 7 -128 7 -106 0 -151 -16 -223 -82 -27 -24 -44 -32 -55 -27 -33 14 -142 16 -172 4 -51 -21 -105 -90 -139 -178 -17 -45 -31 -88 -31 -97 0 -24 -25 -28 -72 -13 -74 25 -90 97 -49 221 56 166 155 259 361 334 88 32 221 28 324 -11z m612 -152 c17 -13 34 -20 38 -17 12 12 138 4 194 -12 31 -9 81 -30 109 -46 29 -16 61 -29 71 -29 10 0 43 13 73 29 30 16 79 34 109 40 90 18 230 -8 308 -57 12 -8 22 -11 22 -7 0 4 9 -4 21 -19 11 -14 25 -23 30 -20 6 4 3 14 -7 25 -16 18 -16 19 3 19 11 0 34 3 49 6 24 5 39 -2 81 -35 28 -23 77 -55 109 -72 53 -27 60 -35 70 -74 l11 -43 -40 14 c-23 8 -46 13 -53 10 -22 -8 -119 9 -120 22 -3 23 -4 27 -24 60 -11 18 -25 30 -30 27 -5 -3 5 -29 22 -58 17 -29 29 -53 28 -55 -1 -1 1 -13 5 -25 4 -12 6 -34 5 -49 -1 -14 3 -29 8 -32 5 -3 7 -39 4 -79 -3 -51 -1 -77 7 -82 8 -4 14 1 18 14 7 26 51 51 92 51 16 0 32 4 35 9 3 4 17 6 31 3 38 -7 32 -36 -12 -55 -21 -9 -58 -32 -83 -50 -38 -29 -45 -39 -43 -66 1 -28 -1 -30 -11 -15 -7 9 -17 14 -23 11 -11 -7 -11 22 1 41 4 6 4 17 1 22 -8 13 -26 3 -24 -13 1 -7 -1 -21 -6 -32 -47 -117 -61 -144 -86 -171 -16 -17 -27 -32 -25 -35 3 -3 -4 -6 -15 -6 -16 -1 -19 2 -14 15 13 35 18 139 6 146 -6 4 -15 -2 -20 -16 -5 -13 -20 -34 -33 -48 -19 -19 -27 -40 -32 -90 -7 -70 -26 -141 -49 -187 -19 -35 -113 -125 -153 -146 -36 -19 -142 -47 -176 -47 -13 0 -33 -6 -43 -14 -17 -12 -17 -17 -5 -45 11 -27 10 -34 -4 -50 -9 -9 -16 -27 -16 -38 0 -25 57 -106 70 -98 6 4 2 18 -10 33 -40 57 -35 64 75 93 128 33 146 41 222 95 l62 45 15 -35 c20 -49 90 -121 140 -146 54 -26 130 -26 198 0 63 24 164 93 160 110 -1 6 2 9 7 6 11 -7 111 100 111 118 0 7 16 34 35 59 45 59 57 91 42 106 -9 10 -9 12 3 9 11 -2 14 5 13 32 -5 73 -15 101 -52 147 -31 40 -49 52 -104 71 -78 28 -102 23 -124 -24 -9 -18 -26 -37 -37 -40 -33 -11 -84 -53 -106 -89 -27 -44 -25 -79 7 -134 20 -35 22 -42 7 -29 -10 9 -23 16 -29 16 -15 -2 -55 62 -55 86 1 29 25 118 31 114 3 -2 20 14 38 34 18 21 37 36 41 33 4 -3 23 1 41 9 19 7 43 16 53 20 33 12 4 27 -32 17 -18 -5 -32 -9 -32 -8 0 1 7 33 14 71 15 71 23 82 66 92 14 4 30 11 37 16 6 5 13 5 17 0 8 -14 61 -9 59 6 -2 8 9 12 32 12 25 0 35 -4 35 -15 0 -13 -4 -14 -21 -4 -15 7 -24 8 -32 0 -7 -7 -2 -13 18 -21 l29 -11 -31 -19 c-60 -36 -53 -60 19 -66 63 -4 155 -31 218 -62 74 -36 167 -130 176 -178 9 -51 -1 -231 -14 -247 -6 -7 -13 -22 -15 -33 -14 -72 -92 -148 -213 -206 -88 -42 -138 -50 -259 -39 -34 3 -49 -2 -90 -31 -133 -95 -281 -143 -410 -133 -116 9 -171 23 -252 65 -79 41 -93 38 -93 -17 l0 -33 -43 6 c-41 6 -45 4 -64 -26 l-20 -32 -29 35 c-23 29 -31 34 -46 26 -11 -6 -18 -18 -17 -27 1 -9 0 -24 -4 -32 -3 -8 -15 -49 -27 -90 -12 -41 -38 -105 -57 -142 -42 -80 -139 -183 -198 -209 -54 -24 -173 -49 -233 -49 -57 0 -177 32 -240 64 -41 21 -54 23 -102 15 -72 -12 -189 4 -254 35 -67 31 -146 103 -198 181 -23 35 -45 62 -50 59 -4 -3 -4 -14 2 -24 9 -17 5 -20 -27 -29 -35 -10 -39 -8 -79 29 -26 23 -62 45 -87 52 -39 10 -45 16 -54 50 -6 21 -7 38 -4 39 3 0 22 2 41 4 19 2 55 8 80 13 31 7 49 7 58 0 7 -6 10 -13 8 -16 -9 -8 15 -43 25 -37 5 4 4 15 -3 28 -20 37 -21 47 -22 197 -1 142 0 146 30 210 51 108 106 150 222 169 34 5 67 13 72 16 16 10 48 83 40 92 -14 16 -32 101 -25 122 4 15 -2 36 -20 67 -31 53 -53 50 -25 -4 11 -20 20 -40 20 -44 0 -18 -64 -79 -77 -73 -9 3 -17 -2 -20 -14 -3 -11 -38 -37 -84 -61 -198 -107 -283 -284 -264 -547 6 -86 5 -93 -12 -94 -10 0 -34 -2 -53 -3 -19 -1 -39 1 -45 4 -5 4 -42 12 -81 19 l-71 12 -101 -40 c-121 -48 -243 -67 -326 -50 -210 44 -395 292 -396 530 0 107 43 234 110 319 11 14 24 55 30 94 26 168 150 296 321 332 76 16 344 19 364 4 6 -4 25 -12 42 -18 46 -15 53 5 9 23 -32 13 -36 20 -36 50 0 32 2 35 30 35 30 0 72 31 82 60 4 12 9 12 36 1 25 -11 32 -19 32 -42 0 -15 5 -31 10 -34 6 -4 8 -10 5 -15 -3 -5 3 -37 15 -72 11 -35 19 -76 17 -93 -2 -29 -1 -29 68 -41 39 -6 73 -10 77 -8 4 3 10 -1 13 -7 4 -5 13 -8 20 -5 7 2 16 2 20 -2 4 -4 10 -7 13 -7 21 -1 104 -61 151 -109 30 -30 58 -53 63 -50 5 3 4 12 -3 20 -6 8 -7 14 -3 14 5 0 15 -9 22 -20 l13 -21 29 21 29 20 38 -26 c29 -20 47 -25 78 -22 28 3 44 0 51 -11 10 -12 14 -10 28 15 14 25 16 26 10 5 -11 -43 -39 -84 -57 -87 -24 -3 -48 -24 -41 -35 3 -5 17 -1 32 10 15 10 29 19 32 19 3 -1 32 7 65 17 33 10 66 19 73 21 8 2 10 9 6 16 -6 10 -3 9 9 0 9 -8 33 -12 54 -11 21 1 48 -3 59 -9 12 -6 24 -9 26 -6 8 8 23 -16 76 -119 29 -56 46 -100 40 -103 -14 -9 144 -167 215 -216 33 -22 89 -52 125 -67 57 -23 70 -33 86 -66 11 -21 20 -53 20 -69 1 -17 6 -32 11 -34 13 -4 19 34 9 56 -3 9 -8 27 -10 40 -3 26 -46 98 -87 147 -26 31 -24 36 11 26 1 -1 4 0 5 2 2 1 11 -4 20 -12 10 -7 17 -11 17 -7 0 3 0 9 0 14 0 4 -4 8 -10 8 -5 1 -12 3 -15 4 -3 1 -8 3 -12 4 -5 1 -27 12 -50 24 -24 12 -43 21 -43 18 0 -2 -16 11 -37 30 -20 18 -41 30 -46 27 -6 -3 -7 -1 -4 4 4 6 -3 19 -14 29 -12 10 -28 31 -35 47 -9 17 -20 25 -27 21 -7 -4 -9 -4 -5 0 3 4 -8 39 -27 76 -18 38 -35 79 -38 91 -5 17 -9 20 -19 12 -19 -15 -49 -12 -88 10 -19 11 -44 21 -55 23 -42 7 -55 10 -61 17 -4 4 -18 7 -31 7 l-23 0 25 56 c33 74 32 89 -8 152 -16 25 -27 0 -12 -28 18 -36 20 -73 3 -67 -7 2 -20 0 -30 -4 -9 -5 -39 -11 -67 -13 -28 -2 -58 -9 -67 -17 -8 -7 -39 -14 -69 -17 -58 -5 -101 14 -141 60 -15 17 -12 16 14 -5 37 -30 44 -32 74 -16 20 11 20 11 0 32 -11 12 -27 37 -36 55 -9 18 -21 30 -27 26 -6 -3 0 -23 15 -50 13 -24 21 -44 17 -44 -4 0 -24 16 -44 35 -20 19 -41 35 -46 35 -5 0 -14 14 -20 30 -12 35 -19 38 -29 9 l-8 -20 -26 21 c-15 11 -58 36 -97 55 -69 34 -70 35 -73 77 -3 48 -21 58 -26 15 -3 -27 24 -122 40 -142 4 -5 28 -8 53 -6 69 4 82 -4 104 -65 25 -64 26 -80 5 -41 -12 22 -21 28 -42 26 -16 -2 -44 7 -65 20 -20 12 -45 24 -55 26 -9 2 -18 4 -19 5 -2 2 -7 4 -13 5 -5 1 -13 4 -17 5 -5 2 -15 3 -23 4 -25 2 -35 67 -20 136 11 52 16 61 32 57 10 -3 21 -1 24 4 3 5 10 7 15 4 5 -4 12 2 15 12 22 65 59 125 86 139 30 15 88 15 148 -1 20 -5 39 3 93 44 38 27 84 55 104 62 58 19 167 6 263 -31 140 -54 129 -35 126 -222 -2 -137 -5 -162 -19 -170 -10 -5 -17 -20 -17 -33 0 -39 -16 -37 -45 6 -43 61 -147 154 -207 183 -131 64 -253 34 -309 -76 -25 -49 -20 -65 20 -63 19 1 30 -3 29 -9 -2 -7 2 -12 7 -13 6 0 9 3 7 9 -6 21 31 77 59 88 57 24 166 -6 227 -63 12 -11 22 -17 22 -12 0 14 25 -14 25 -28 0 -7 9 -11 19 -9 10 2 25 0 35 -4 9 -4 23 -8 31 -8 8 -1 25 -22 37 -48 13 -27 30 -48 38 -48 15 0 55 68 55 95 0 8 5 15 10 15 6 0 10 -18 10 -40 0 -23 6 -42 14 -47 8 -4 16 -18 18 -31 5 -37 21 -27 33 22 7 25 24 64 40 87 l28 43 -22 69 c-17 51 -22 87 -19 139 2 59 0 72 -13 73 -33 5 -158 86 -159 103 0 7 11 35 25 62 24 47 26 48 56 40 36 -10 64 -6 124 21 42 19 43 19 91 -17z m1314 -350 c81 -37 159 -54 307 -64 196 -13 312 -47 483 -144 44 -24 82 -40 85 -35 4 5 -8 17 -25 27 -68 37 -69 39 -17 47 66 10 104 0 162 -42 41 -31 46 -38 30 -41 -45 -7 -47 -11 -26 -41 29 -40 26 -49 -3 -14 -26 30 -102 67 -111 54 -2 -5 17 -22 43 -39 57 -37 208 -180 199 -188 -3 -4 -30 0 -59 7 -57 15 -231 19 -262 6 -16 -6 -16 -10 -5 -24 13 -17 12 -17 -12 -1 -20 12 -35 14 -70 7 -95 -18 -110 -13 -149 43 -46 68 -126 129 -220 169 -56 23 -85 43 -117 79 -25 27 -61 55 -85 65 -53 21 -182 32 -201 17 -22 -19 -34 1 -41 71 -6 65 -6 67 16 67 13 0 48 -12 78 -26z m147 -286 c-3 -7 -5 -2 -5 12 0 14 2 19 5 13 2 -7 2 -19 0 -25z m273 -42 c0 -2 -8 -10 -17 -17 -16 -13 -17 -12 -4 4 13 16 21 21 21 13z m-383 -93 c-3 -10 -5 -4 -5 12 0 17 2 24 5 18 2 -7 2 -21 0 -30z m471 12 c-2 -5 -8 -10 -15 -11 -6 -1 -9 4 -6 12 6 16 27 15 21 -1z m-416 -71 c33 -17 52 -71 46 -135 -3 -28 0 -53 6 -59 8 -8 8 -11 -1 -8 -12 3 -67 -66 -77 -100 -21 -64 -212 -182 -295 -182 -86 0 -150 65 -136 139 4 20 6 50 6 67 -1 26 7 39 47 73 l49 40 29 -30 c29 -31 84 -65 84 -53 0 4 7 1 15 -6 13 -10 24 -8 63 17 30 18 47 36 47 48 0 21 -1 21 -79 9 -47 -8 -66 11 -66 63 0 65 44 116 115 134 38 10 112 1 147 -17z m-527 -250 c35 9 60 -34 45 -79 -6 -19 -10 -40 -8 -47 1 -7 -4 -24 -11 -37 l-13 -24 -14 24 c-7 13 -13 31 -14 40 0 19 -35 51 -74 67 -27 12 -27 14 -12 31 9 10 13 21 9 26 -5 4 -3 5 4 1 6 -3 14 -2 18 4 4 7 13 6 27 -1 11 -6 30 -8 43 -5z m605 2 c0 -3 -4 -8 -10 -11 -5 -3 -10 -1 -10 4 0 6 5 11 10 11 6 0 10 -2 10 -4z"/>
 <path d="M2696 2431 c-4 -5 -2 -12 3 -15 5 -4 12 -2 15 3 4 5 2 12 -3 15 -5 4 -12 2 -15 -3z"/>
 <path d="M2605 2330 c-8 -16 -13 -30 -9 -30 4 0 1 -6 -5 -14 -8 -10 -9 -16 -1 -21 5 -3 11 -4 11 -1 1 3 2 9 3 14 1 4 10 21 19 39 10 19 13 34 7 38 -5 3 -16 -8 -25 -25z"/>
 <path d="M3080 2163 c-14 -2 -38 -6 -55 -8 -39 -6 -98 -42 -90 -55 4 -6 16 -3 30 6 23 15 25 15 31 -1 4 -10 -1 -22 -15 -31 -34 -24 -15 -34 26 -13 41 21 134 26 177 9 21 -8 28 -5 45 16 12 15 22 20 26 14 3 -6 11 -8 16 -4 39 24 -116 79 -191 67z"/>
 <path d="M2870 2038 c-22 -37 -24 -44 -11 -52 5 -3 18 12 29 34 24 49 10 64 -18 18z"/>
 <path d="M3226 2062 c-3 -5 5 -19 18 -31 13 -13 26 -18 30 -13 3 5 -5 19 -18 31 -13 13 -26 18 -30 13z"/>
 <path d="M3336 2041 c-4 -5 -2 -12 3 -15 5 -4 12 -2 15 3 4 5 2 12 -3 15 -5 4 -12 2 -15 -3z"/>
 <path d="M1266 2031 c-4 -5 -2 -12 3 -15 5 -4 12 -2 15 3 4 5 2 12 -3 15 -5 4 -12 2 -15 -3z"/>
 <path d="M3375 2030 c-7 -11 35 -31 49 -22 5 3 1 11 -9 19 -22 16 -32 16 -40 3z"/>
 <path d="M2926 2021 c-4 -5 -2 -12 3 -15 5 -4 12 -2 15 3 4 5 2 12 -3 15 -5 4 -12 2 -15 -3z"/>
 <path d="M3400 1973 c-23 -27 -39 -54 -37 -64 2 -9 -4 -21 -15 -28 -10 -6 -16 -16 -13 -21 4 -6 16 -3 30 6 22 14 29 14 73 0 27 -9 68 -32 90 -52 23 -20 43 -30 47 -24 3 5 3 10 -2 10 -4 1 3 7 17 15 23 13 27 12 41 -7 9 -12 19 -16 22 -11 10 15 -64 124 -104 154 -19 14 -50 35 -70 47 l-37 22 -42 -47z"/>
 <path d="M1290 1995 c-7 -9 -15 -13 -18 -10 -3 3 -11 0 -19 -6 -7 -6 -13 -8 -13 -4 0 4 -7 2 -15 -5 -8 -7 -15 -9 -15 -5 0 4 -6 3 -12 -1 -18 -13 -38 -11 -68 6 -14 7 -56 15 -95 18 -99 6 -168 -22 -246 -98 -93 -91 -146 -225 -132 -338 5 -46 3 -54 -30 -97 -79 -103 -54 -259 61 -379 116 -121 280 -128 359 -16 18 25 39 42 58 46 70 15 159 83 148 112 -4 10 -2 13 5 8 6 -3 16 3 22 14 6 11 8 20 4 20 -3 0 -2 6 4 13 14 16 11 88 -3 85 -5 -2 -10 -21 -11 -43 0 -22 -6 -49 -12 -60 -12 -19 -12 -19 -26 -2 -9 12 -12 31 -9 52 3 19 2 42 -2 52 -5 10 -9 24 -11 31 -1 7 -10 24 -19 38 -26 39 -37 17 -12 -24 19 -30 22 -46 17 -86 -8 -66 -55 -111 -128 -121 -53 -7 -78 -25 -69 -49 10 -26 -48 -68 -101 -74 -136 -13 -257 151 -226 308 4 17 14 34 23 37 45 16 50 31 44 123 -7 108 5 159 59 241 32 50 48 65 96 87 31 14 82 28 112 30 l55 5 -33 -37 c-52 -59 -38 -78 33 -47 25 11 46 20 48 19 1 -1 13 5 27 12 14 8 28 15 33 16 4 1 9 3 12 4 3 1 10 4 15 5 6 1 12 4 15 5 3 1 10 4 15 5 6 1 12 4 15 5 3 1 9 3 14 4 5 0 12 4 16 8 4 4 13 4 20 2 16 -7 29 12 15 21 -6 4 -17 1 -25 -5 -8 -7 -15 -9 -15 -5 0 4 -7 2 -15 -5 -8 -7 -15 -9 -15 -5 0 4 -7 2 -15 -5 -8 -7 -15 -9 -15 -5 0 4 -6 3 -12 -3 -7 -6 -16 -11 -20 -11 -5 -1 -9 -1 -10 -2 -32 -9 -35 -6 -25 27 5 18 14 31 19 28 5 -3 15 0 23 6 8 7 15 9 15 5 0 -4 7 -2 15 5 8 7 15 9 15 5 0 -4 7 -2 15 5 8 7 15 9 15 5 0 -4 6 -2 13 4 8 6 16 9 19 6 3 -3 11 1 17 9 7 8 8 17 3 20 -6 3 -15 -1 -22 -9z"/>
 <path d="M3277 2004 c-3 -3 1 -18 11 -31 9 -15 15 -41 13 -63 -3 -43 13 -60 28 -31 8 14 8 28 -1 48 -6 15 -12 34 -14 42 -4 19 -29 43 -37 35z"/>
 <path d="M2907 1984 c-3 -4 -1 -16 5 -27 6 -12 7 -22 2 -24 -66 -23 -137 -94 -116 -115 8 -8 14 -5 21 15 10 25 24 37 101 79 30 17 31 18 15 48 -17 32 -18 33 -28 24z"/>
 <path d="M2819 1949 c-20 -10 -49 -33 -64 -51 -23 -28 -25 -33 -12 -43 16 -11 9 -38 -9 -36 -5 1 -9 -11 -9 -26 0 -32 25 -37 64 -14 21 13 22 16 6 27 -9 7 -17 28 -18 50 -2 39 4 45 79 90 33 19 0 22 -37 3z"/>
 <path d="M1335 1930 c-8 -13 20 -24 41 -16 8 3 12 10 9 16 -8 13 -42 13 -50 0z"/>
 <path d="M3161 1767 c-16 -20 -4 -26 30 -17 17 5 31 5 35 -1 3 -5 10 -7 15 -3 5 3 7 10 3 15 -3 5 -9 7 -14 4 -5 -3 -11 -1 -15 5 -9 14 -41 12 -54 -3z"/>
 <path d="M3577 1773 c-4 -6 0 -18 7 -28 8 -11 16 -14 19 -8 4 6 0 18 -7 28 -8 11 -16 14 -19 8z"/>
 <path d="M2795 1760 c-4 -6 -1 -17 5 -25 7 -8 10 -15 6 -15 -11 0 30 -74 52 -93 11 -10 23 -14 26 -9 3 5 -1 16 -10 23 -20 16 -59 90 -56 106 3 16 -15 26 -23 13z"/>
 <path d="M2737 1724 c-6 -7 1 -33 16 -51 18 -24 27 -2 12 28 -16 31 -18 32 -28 23z"/>
 <path d="M3196 1721 c-4 -5 -2 -12 3 -15 5 -4 12 -2 15 3 4 5 2 12 -3 15 -5 4 -12 2 -15 -3z"/>
 <path d="M3236 1706 c-24 -20 -26 -27 -17 -44 8 -16 7 -30 -8 -64 -10 -24 -25 -48 -32 -54 -18 -15 -78 -23 -85 -12 -3 5 -10 6 -15 2 -5 -3 -7 -10 -3 -15 3 -5 9 -7 14 -4 5 3 14 -4 20 -16 7 -12 8 -19 2 -15 -5 3 -17 -3 -27 -13 -16 -19 -18 -19 -61 4 -24 13 -46 19 -49 15 -6 -11 39 -43 63 -45 10 -1 24 -5 33 -9 9 -4 43 -6 75 -4 44 2 58 7 56 17 -2 9 4 12 16 9 22 -6 84 60 102 108 14 36 3 108 -22 139 -24 30 -26 30 -62 1z"/>
 <path d="M2535 1690 c-4 -6 -3 -16 3 -22 6 -6 12 -6 17 2 4 6 3 16 -3 22 -6 6 -12 6 -17 -2z"/>
 <path d="M2776 1642 c-3 -5 2 -20 12 -33 24 -29 36 -11 13 20 -11 14 -21 19 -25 13z"/>
 <path d="M2896 1601 c-4 -5 -2 -12 3 -15 5 -4 12 -2 15 3 4 5 2 12 -3 15 -5 4 -12 2 -15 -3z"/>
 <path d="M2976 1601 c-4 -5 -2 -12 4 -16 5 -3 10 -3 10 1 0 5 15 -7 34 -25 19 -18 36 -29 40 -23 3 5 -8 22 -24 37 -17 16 -30 25 -30 21 0 -5 -6 -3 -14 3 -9 8 -16 8 -20 2z"/>
 <path d="M2006 1591 c-4 -5 -2 -12 3 -15 5 -4 12 -2 15 3 4 5 2 12 -3 15 -5 4 -12 2 -15 -3z"/>
 <path d="M1011 1551 c-72 -24 -141 -94 -141 -145 0 -43 13 -53 33 -23 8 12 27 29 43 37 16 8 42 25 57 37 17 14 42 23 62 23 39 0 49 11 49 54 0 39 -25 43 -103 17z"/>
 <path d="M1125 1551 c-3 -5 8 -16 25 -24 36 -18 50 -5 18 17 -26 18 -35 20 -43 7z"/>
 <path d="M2855 1551 c-3 -6 3 -15 14 -21 12 -6 22 -6 26 -1 3 6 -3 15 -14 21 -12 6 -22 6 -26 1z"/>
 <path d="M1946 1531 c-4 -5 -2 -12 3 -15 5 -4 12 -2 15 3 4 5 2 12 -3 15 -5 4 -12 2 -15 -3z"/>
 <path d="M2915 1531 c-7 -12 12 -24 25 -16 11 7 4 25 -10 25 -5 0 -11 -4 -15 -9z"/>
 <path d="M1206 1501 c-4 -5 -2 -12 3 -15 5 -4 12 -2 15 3 4 5 2 12 -3 15 -5 4 -12 2 -15 -3z"/>
 <path d="M1126 1482 c-3 -6 1 -15 8 -21 8 -7 17 -8 20 -3 3 6 -1 15 -8 21 -8 7 -17 8 -20 3z"/>
 <path d="M1236 1461 c-4 -5 -2 -12 3 -15 5 -4 12 -2 15 3 4 5 2 12 -3 15 -5 4 -12 2 -15 -3z"/>
 <path d="M1256 1431 c-4 -5 -2 -12 4 -16 6 -4 8 -10 5 -15 -3 -5 -1 -11 4 -14 5 -4 12 -2 15 3 4 5 2 12 -4 16 -6 4 -8 10 -5 15 3 5 1 11 -4 14 -5 4 -12 2 -15 -3z"/>
 <path d="M2221 1428 c-66 -9 -131 -36 -168 -71 -24 -21 -21 -46 3 -26 24 19 17 -15 -7 -37 -26 -23 -68 -94 -74 -123 -2 -12 -6 -25 -10 -30 -3 -5 -1 -12 4 -16 6 -3 15 4 21 15 6 11 8 20 5 20 -7 0 29 69 47 90 13 16 79 65 88 65 5 1 74 22 100 32 8 3 49 5 91 5 76 1 121 -14 148 -46 7 -9 18 -13 23 -10 21 13 -61 74 -107 79 -11 1 -42 3 -68 4 -34 1 -47 5 -45 14 5 14 117 27 125 14 3 -4 12 -7 21 -5 10 1 27 -3 40 -10 12 -7 22 -9 22 -5 0 12 80 -69 100 -102 10 -17 23 -43 29 -58 l11 -28 -44 32 c-25 17 -47 38 -50 46 -3 8 -11 11 -16 8 -8 -5 -7 -14 3 -28 7 -12 21 -46 31 -75 15 -47 15 -55 1 -82 -8 -16 -24 -34 -34 -40 -36 -18 -102 -12 -148 16 -56 32 -80 27 -59 -13 27 -52 94 -112 138 -124 85 -22 152 5 188 76 51 103 18 244 -80 340 -27 27 -56 50 -65 52 -23 5 -39 9 -57 17 -9 4 -21 5 -27 2 -5 -4 -12 -2 -16 4 -7 12 -74 11 -164 -2z"/>
 <path d="M1991 1306 c-7 -8 -8 -17 -3 -20 6 -3 15 1 21 8 7 8 8 17 3 20 -6 3 -15 -1 -21 -8z"/>
 <path d="M1935 1210 c-14 -27 -22 -50 -19 -50 4 0 1 -6 -5 -14 -8 -10 -9 -16 -1 -21 5 -3 11 -4 11 -1 1 3 2 9 3 14 1 4 14 30 29 59 15 29 23 54 17 58 -5 3 -21 -17 -35 -45z"/>
 <path d="M2956 1241 c-4 -5 -2 -12 4 -16 5 -3 10 -3 10 1 0 3 6 1 14 -5 10 -8 16 -9 21 -1 3 5 4 11 1 11 -3 1 -9 2 -13 3 -5 1 -13 5 -20 9 -6 4 -14 3 -17 -2z"/>
 <path d="M3045 1220 c-8 -12 20 -24 35 -15 6 3 8 11 5 16 -8 12 -32 12 -40 -1z"/>
 <path d="M1894 1086 c-4 -10 -2 -22 4 -28 8 -8 13 -7 18 6 4 10 2 22 -4 28 -8 8 -13 7 -18 -6z"/>
 <path d="M1956 1091 c-4 -5 -2 -12 3 -15 5 -4 12 -2 15 3 4 5 2 12 -3 15 -5 4 -12 2 -15 -3z"/>
 <path d="M1965 1010 c-4 -6 -2 -17 4 -24 6 -7 8 -16 4 -19 -3 -4 -1 -13 5 -20 9 -10 8 -19 -4 -35 -20 -28 -28 -28 -42 4 -7 14 -17 22 -22 19 -18 -11 37 -99 98 -158 58 -55 166 -117 205 -117 9 0 43 -27 75 -59 70 -73 132 -102 227 -108 88 -5 132 18 188 97 23 34 56 65 87 83 27 16 70 52 96 80 46 53 103 152 105 184 1 13 3 11 7 -5 4 -13 12 -23 17 -23 16 1 17 44 1 66 -14 20 -14 20 -36 0 -12 -11 -24 -19 -27 -17 -3 2 -17 -23 -33 -55 -32 -68 -94 -128 -178 -170 -40 -21 -70 -46 -100 -85 -52 -69 -89 -85 -163 -69 -59 13 -97 31 -123 60 -18 20 -18 21 13 56 17 20 29 40 26 45 -3 6 -38 7 -78 4 -92 -8 -141 6 -205 56 -51 41 -119 134 -114 156 1 7 -2 15 -7 19 -6 3 -8 12 -5 19 7 17 -12 30 -21 16z"/>
 <path d="M1896 971 c-4 -5 -2 -12 3 -15 5 -4 12 -2 15 3 4 5 2 12 -3 15 -5 4 -12 2 -15 -3z"/>
 <path d="M1597 743 c-4 -6 0 -18 7 -28 8 -11 16 -14 19 -8 4 6 0 18 -7 28 -8 11 -16 14 -19 8z"/>
 </g>
<g id="layer6" fill="#f2f4f5" stroke="none">
 <path d="M1740 2916 c-125 -27 -238 -77 -360 -160 -41 -28 -92 -61 -112 -73 -62 -36 -92 -89 -117 -204 -12 -57 -23 -105 -25 -107 -2 -2 -75 -4 -162 -6 -199 -4 -289 -22 -412 -82 -162 -79 -275 -211 -332 -389 -13 -38 -40 -104 -60 -145 -83 -167 -116 -338 -99 -516 13 -139 34 -215 92 -334 45 -93 62 -116 146 -201 150 -149 270 -202 491 -215 122 -7 261 7 345 36 59 20 207 28 232 12 7 -4 30 -35 51 -67 79 -122 207 -238 313 -283 63 -27 169 -49 274 -57 52 -4 135 -19 195 -37 193 -55 406 -49 612 18 175 57 327 221 409 439 11 30 24 57 28 59 4 3 56 -4 116 -14 250 -44 455 -20 654 74 101 49 128 57 211 66 129 14 159 24 275 83 159 83 276 214 316 357 7 25 14 50 16 55 2 6 6 24 9 41 l6 31 96 6 c70 4 107 2 136 -9 23 -8 71 -19 108 -24 49 -7 73 -16 91 -34 50 -50 157 -38 157 17 0 36 56 97 90 97 39 0 52 20 48 77 -2 39 -7 50 -26 58 -20 9 -23 16 -21 67 2 42 -2 63 -14 76 -10 10 -17 22 -17 26 0 10 -74 108 -93 125 -9 7 -14 17 -11 22 3 5 -2 12 -11 15 -9 4 -23 20 -31 36 -20 38 -123 151 -146 160 -10 4 -18 12 -18 18 0 6 -10 14 -23 19 -13 5 -36 20 -53 33 -16 14 -36 28 -44 31 -8 4 -33 18 -55 32 -61 37 -172 89 -252 118 -93 34 -191 53 -338 67 -141 13 -173 21 -280 65 -44 18 -94 38 -110 44 -17 6 -60 40 -98 74 -37 35 -92 78 -123 97 -141 85 -334 123 -523 102 -141 -16 -176 -15 -258 4 -97 23 -298 23 -383 -1 -118 -32 -113 -33 -182 29 -75 67 -185 126 -288 156 -97 28 -341 37 -440 16z m325 -111 c102 -22 217 -81 325 -168 120 -97 135 -100 249 -56 115 44 235 51 364 20 106 -25 147 -26 275 -5 111 18 191 13 292 -18 89 -28 138 -54 260 -141 191 -137 321 -189 540 -213 220 -24 347 -62 530 -161 47 -25 112 -65 146 -88 36 -26 74 -45 95 -47 29 -3 34 -7 37 -32 5 -39 97 -135 114 -118 8 8 22 -5 54 -54 23 -36 46 -64 51 -64 13 2 21 -40 22 -122 1 -59 -2 -78 -12 -78 -8 0 -22 -9 -33 -21 -10 -12 -31 -27 -46 -35 -16 -8 -28 -20 -28 -27 0 -16 -79 -10 -100 8 -23 20 -76 28 -101 15 -15 -8 -19 -9 -15 -1 12 19 -19 23 -141 14 -79 -5 -117 -12 -116 -20 1 -6 -6 -9 -18 -6 -32 9 -66 -32 -89 -110 -42 -138 -95 -219 -188 -290 -119 -90 -205 -127 -358 -151 -112 -18 -144 -28 -254 -79 -41 -20 -112 -45 -157 -56 -136 -35 -329 -23 -463 28 -103 39 -129 25 -180 -99 -124 -300 -324 -452 -615 -467 -89 -4 -113 -1 -220 26 -66 18 -167 36 -225 42 -238 22 -387 104 -522 287 -65 88 -139 126 -268 138 -55 5 -84 1 -185 -27 -106 -29 -134 -33 -240 -33 -98 1 -132 5 -185 23 -230 80 -407 278 -471 530 -24 92 -25 239 -3 325 17 67 123 328 181 445 88 177 267 300 484 331 41 6 129 9 197 8 l124 -3 28 32 c17 19 38 62 51 105 26 89 40 117 81 164 83 95 347 234 488 257 58 10 180 6 245 -8z"/>
 <path d="M1774 2621 c-29 -10 -84 -36 -123 -56 -131 -69 -240 -220 -249 -345 -5 -65 3 -75 85 -104 51 -18 56 -14 105 94 57 124 126 164 243 141 l64 -13 42 35 c82 71 178 97 287 79 37 -6 70 -8 75 -3 12 12 -54 83 -111 119 -78 50 -162 72 -271 72 -67 -1 -111 -6 -147 -19z"/>
 <path d="M2735 2431 c-118 -55 -180 -214 -140 -362 29 -107 29 -111 -4 -165 -78 -125 -53 -294 67 -456 84 -114 164 -168 307 -208 68 -19 95 -22 185 -17 162 9 256 48 340 144 40 46 81 147 79 193 -1 14 6 53 15 88 17 62 17 65 -4 108 -22 44 -71 85 -134 112 -24 11 -37 10 -77 -4 -27 -10 -52 -14 -56 -10 -4 4 -8 28 -9 54 -1 26 -3 50 -3 55 -2 18 -89 101 -118 113 -64 27 -160 12 -213 -32 -46 -39 -54 -61 -36 -89 16 -24 15 -25 -22 -44 -21 -11 -53 -33 -70 -49 -43 -40 -43 -89 -1 -168 46 -88 53 -94 119 -94 54 0 60 -3 99 -40 54 -52 87 -53 130 -5 26 30 31 44 31 85 0 41 -5 55 -31 85 -26 29 -28 36 -15 41 43 16 117 -34 136 -93 16 -45 8 -115 -16 -150 -10 -16 -17 -31 -16 -35 4 -16 -98 -58 -140 -58 -69 1 -135 23 -170 57 -19 18 -49 34 -71 38 -29 6 -49 21 -91 67 -49 56 -55 67 -66 136 -11 63 -11 84 1 131 13 52 17 57 61 78 40 19 49 28 58 64 27 98 147 167 275 157 70 -6 110 -24 169 -77 23 -22 64 -45 96 -55 78 -25 133 -60 184 -116 64 -73 78 -109 78 -204 0 -44 2 -85 5 -89 8 -14 92 81 99 111 3 15 12 41 20 58 39 88 37 284 -3 398 -34 93 -141 186 -263 226 -52 18 -82 21 -151 18 -75 -3 -96 -9 -164 -42 l-77 -38 -58 30 c-130 68 -258 89 -335 53z"/>
 <path d="M2078 2376 c-20 -7 -65 -34 -100 -60 -55 -42 -67 -47 -98 -41 -101 18 -114 17 -149 -7 -42 -28 -83 -104 -85 -155 -1 -32 3 -40 24 -48 14 -5 58 -27 98 -47 l72 -36 36 55 c45 71 99 97 188 91 83 -5 158 -43 247 -125 53 -49 74 -62 83 -53 11 11 28 335 19 353 -8 15 -100 56 -160 71 -73 19 -125 20 -175 2z"/>
 <path d="M3996 2101 c-10 -15 -3 -81 9 -91 6 -5 42 -14 80 -19 86 -12 153 -46 184 -93 19 -30 39 -43 105 -69 98 -39 175 -94 221 -158 50 -69 68 -76 146 -57 128 32 311 47 323 27 7 -11 65 -23 78 -15 21 13 -166 189 -234 220 -18 8 -53 28 -78 44 -64 43 -177 95 -256 120 -72 22 -217 41 -257 33 -27 -5 -203 30 -260 52 -43 17 -54 18 -61 6z"/>
 <path d="M841 2070 c-84 -12 -158 -49 -229 -115 -83 -76 -116 -143 -137 -276 -3 -20 -21 -56 -40 -81 -41 -53 -70 -128 -86 -226 -33 -198 105 -456 301 -562 64 -35 66 -35 185 -34 117 1 122 2 225 44 l105 42 98 -12 c60 -8 102 -9 108 -3 5 5 10 81 12 168 3 145 6 166 30 229 31 79 101 181 149 218 18 14 58 38 88 53 77 38 120 73 120 96 0 10 4 18 8 16 5 -1 21 12 36 30 23 28 26 35 15 55 -13 26 -99 118 -111 118 -4 0 -18 11 -32 24 -40 41 -125 61 -261 61 -130 0 -175 -11 -337 -81 -42 -19 -79 -34 -83 -34 -11 0 6 44 26 66 45 49 -47 52 -141 4 -46 -24 -92 -77 -128 -150 -25 -50 -27 -65 -27 -169 0 -93 -3 -115 -15 -119 -8 -3 -23 -11 -32 -20 -26 -22 -25 -135 1 -196 40 -93 149 -166 225 -152 39 7 96 65 96 96 0 20 7 23 82 35 44 7 103 58 113 98 16 60 -21 142 -77 177 -44 27 -80 25 -116 -5 -17 -14 -35 -25 -41 -25 -7 0 -32 -21 -56 -46 l-45 -46 0 31 c0 74 52 137 134 165 90 29 139 20 204 -39 85 -76 106 -207 49 -294 -32 -48 -61 -69 -129 -92 -33 -11 -60 -30 -84 -58 -48 -55 -87 -74 -154 -74 -148 0 -285 137 -298 299 -6 85 4 128 40 169 29 34 30 39 32 133 1 93 3 103 40 177 43 87 102 152 168 186 60 31 190 38 253 14 42 -15 48 -16 94 0 67 22 79 38 45 59 -52 35 -109 47 -234 51 -69 2 -154 0 -189 -5z"/>
 <path d="M1979 2037 c-47 -31 -57 -66 -32 -103 11 -16 28 -42 37 -57 38 -62 145 -72 187 -19 11 14 32 28 47 29 47 6 56 11 42 28 -6 8 -9 19 -6 24 9 14 -91 87 -143 106 -60 21 -92 19 -132 -8z"/>
 <path d="M4018 1899 c-11 -6 -19 -29 -23 -64 -8 -64 4 -87 44 -84 14 1 48 -8 74 -20 27 -11 51 -21 53 -21 9 0 58 -61 76 -94 9 -17 17 -41 18 -53 0 -12 4 -24 9 -27 5 -3 3 -31 -5 -61 -13 -58 -37 -104 -61 -118 -8 -5 -23 -30 -34 -55 -26 -61 -77 -113 -168 -173 -159 -106 -279 -101 -390 15 -19 20 -39 36 -44 36 -4 0 -38 -18 -75 -40 -37 -23 -105 -52 -152 -66 -47 -14 -95 -36 -108 -48 l-23 -22 20 -25 c28 -36 127 -86 207 -105 49 -11 99 -15 174 -12 91 4 116 9 184 38 43 18 111 54 150 81 l71 47 105 -5 105 -5 83 41 c56 28 105 62 148 103 65 62 84 99 84 164 0 16 5 35 11 41 16 16 14 149 -3 193 -4 8 -9 27 -12 41 -6 26 -100 109 -124 109 -7 0 -12 5 -12 10 0 24 -203 89 -216 69 -3 -5 -13 -5 -24 1 -10 5 -28 10 -39 10 -30 0 -27 34 5 55 22 14 24 19 13 30 -18 17 -99 26 -121 14z"/>
 <path d="M2246 1671 c-3 -4 -23 -11 -44 -13 -56 -8 -182 -71 -218 -109 -18 -19 -44 -59 -59 -90 -26 -54 -64 -87 -86 -74 -5 4 -36 -1 -69 -11 -81 -23 -131 -68 -174 -157 -29 -60 -35 -87 -41 -164 -7 -114 7 -206 45 -290 62 -137 184 -273 287 -320 52 -24 71 -27 188 -29 118 -1 135 -4 185 -27 30 -15 89 -34 130 -43 69 -16 80 -16 169 0 131 23 172 44 253 127 89 93 144 200 174 339 17 82 4 97 -33 39 -52 -82 -97 -130 -158 -168 -41 -26 -72 -56 -93 -88 -62 -97 -162 -122 -292 -73 -47 17 -77 38 -119 80 -35 37 -71 62 -96 70 -123 39 -226 123 -270 222 -22 50 -27 75 -27 135 1 40 7 92 14 116 20 67 84 168 130 205 40 32 100 64 123 67 6 1 35 4 65 8 30 4 88 8 128 9 40 0 75 5 78 9 6 11 -36 90 -46 84 -4 -2 -10 22 -14 55 -6 47 -12 63 -33 80 -26 20 -87 27 -97 11z"/>
 <path d="M3960 1638 c-14 -8 -26 -21 -28 -31 -2 -9 -19 -40 -38 -69 -31 -46 -33 -53 -21 -72 16 -23 73 -34 90 -17 6 6 18 11 27 11 13 0 15 -7 12 -30 -2 -17 -10 -30 -18 -30 -8 0 -17 -7 -20 -15 -9 -21 -70 -19 -121 5 l-43 19 -47 -40 c-102 -86 -115 -124 -63 -183 37 -42 88 -61 138 -51 93 17 243 129 282 210 11 22 29 51 40 65 45 56 33 178 -22 214 -34 22 -136 31 -168 14z"/>
 <path d="M2207 1345 c-26 -7 -60 -21 -75 -32 -15 -10 -38 -23 -52 -29 -28 -12 -83 -85 -85 -112 -1 -9 -7 -28 -14 -41 -15 -28 -8 -110 16 -185 12 -37 33 -67 83 -116 96 -97 157 -114 292 -84 23 5 26 3 21 -14 -3 -11 -16 -30 -29 -43 -31 -29 -30 -41 6 -68 42 -30 104 -51 155 -51 50 0 92 29 130 90 15 24 42 46 79 64 124 61 216 179 216 277 0 54 -6 60 -80 84 -30 9 -88 35 -128 56 -41 22 -78 37 -83 33 -5 -3 -9 -25 -9 -49 0 -24 -9 -69 -20 -99 -24 -63 -60 -86 -134 -86 -65 0 -105 20 -154 75 -66 75 -56 100 23 55 56 -32 84 -36 134 -19 38 14 51 35 51 89 0 45 -23 110 -39 110 -6 0 -11 6 -11 13 0 15 -56 70 -85 84 -31 14 -155 14 -208 -2z"/>
 </g>

</svg>